<?xml version="1.0" standalone="no"?>
<!DOCTYPE svg PUBLIC "-//W3C//DTD SVG 1.1//EN" "http://www.w3.org/Graphics/SVG/1.1/DTD/svg11.dtd" >
<svg>
<metadata>
Created by FontForge 20090914 at Sun Aug 11 11:23:36 2013
 By www-data
Copyright (c) 2003 by Bitstream, Inc. All Rights Reserved.
</metadata>
<defs>
<font id="RupeeForadian" horiz-adv-x="1024" >
  <font-face 
    font-family="Rupee Foradian"
    font-weight="400"
    font-stretch="normal"
    units-per-em="2048"
    panose-1="2 11 6 3 3 8 4 2 2 4"
    ascent="1556"
    descent="-492"
    x-height="1120"
    cap-height="1493"
    bbox="-375 -483 2636 1901"
    underline-thickness="143"
    underline-position="-142"
    unicode-range="U+0020-U+FB02"
  />
<missing-glyph horiz-adv-x="1229" 
d="M102 -362v1806h1024v-1806h-1024zM217 -248h795v1577h-795v-1577z" />
    <glyph glyph-name=".notdef" horiz-adv-x="1229" 
d="M102 -362v1806h1024v-1806h-1024zM217 -248h795v1577h-795v-1577z" />
    <glyph glyph-name="space" unicode=" " horiz-adv-x="651" 
 />
    <glyph glyph-name="exclam" unicode="!" horiz-adv-x="821" 
d="M309 254h203v-254h-203v254zM309 1493h203v-655l-20 -357h-162l-21 357v655z" />
    <glyph glyph-name="quotedbl" unicode="&#x22;" horiz-adv-x="942" 
d="M367 1493v-555h-170v555h170zM745 1493v-555h-170v555h170z" />
    <glyph glyph-name="numbersign" unicode="#" horiz-adv-x="1716" 
d="M1047 901h-291l-84 -334h293zM897 1470l-104 -415h292l105 415h160l-103 -415h312v-154h-351l-82 -334h318v-153h-357l-104 -414h-160l103 414h-293l-103 -414h-161l104 414h-315v153h352l84 334h-322v154h361l102 415h162z" />
    <glyph glyph-name="dollar" unicode="$" horiz-adv-x="1303" 
d="M692 -301l-100 0.000976562l-1 301c-70 1.33301 -140 9.5 -210 24.5s-140.333 37.5 -211 67.5v180c68 -42.667 136.833 -74.834 206.5 -96.501s141.5 -32.834 215.5 -33.501v456c-147.333 24 -254.5 64.667 -321.5 122s-100.5 136 -100.5 236
c0 108.667 36.333 194.334 109 257.001s177 98.667 313 108v235h100v-232c62 -2.66699 122 -9.16699 180 -19.5s114.667 -24.5 170 -42.5v-175c-55.333 28 -112.166 49.667 -170.499 65s-118.166 24.333 -179.499 27v-427c151.333 -23.333 262.666 -65 333.999 -125
s107 -142 107 -246c0 -112.667 -37.833 -201.5 -113.5 -266.5s-184.834 -102.5 -327.501 -112.5v-303zM592 770.001v410c-77.333 -8.66699 -136.333 -30.667 -177 -66s-61 -82.333 -61 -141c0 -57.333 18.833 -102 56.5 -134s98.167 -55 181.5 -69zM692 578.001v-433.001
c84.667 11.333 148.5 35.333 191.5 72s64.5 85 64.5 145c0 58.667 -20.5 105.334 -61.5 140.001s-105.833 60 -194.5 76z" />
    <glyph glyph-name="percent" unicode="%" horiz-adv-x="1946" 
d="M1489 657c-58 0 -103.5 -24.667 -136.5 -74s-49.5 -118 -49.5 -206c0 -86.667 16.5 -154.834 49.5 -204.501s78.5 -74.5 136.5 -74.5c56.667 0 101.5 24.833 134.5 74.5s49.5 117.834 49.5 204.501c0 87.333 -16.5 155.833 -49.5 205.5s-77.833 74.5 -134.5 74.5z
M1489 784c105.333 0 189 -36.667 251 -110s93 -172.333 93 -297s-31.167 -223.5 -93.5 -296.5s-145.833 -109.5 -250.5 -109.5c-106.667 0 -191 36.5 -253 109.5s-93 171.833 -93 296.5c0 125.333 31.167 224.5 93.5 297.5s146.5 109.5 252.5 109.5zM457 1393
c-57.333 0 -102.501 -24.832 -135.501 -74.499s-49.5 -117.834 -49.5 -204.501c0 -88 16.333 -156.667 49 -206s78 -74 136 -74s103.5 24.667 136.5 74s49.5 118 49.5 206c0 86 -16.667 154 -50 204s-78.666 75 -135.999 75zM1360 1520h160l-934 -1549h-160zM456.999 1520
c105.333 0 189.333 -36.5 252 -109.5s94 -171.833 94 -296.5c0 -126 -31.167 -225.333 -93.5 -298s-146.5 -109 -252.5 -109s-189.833 36.5 -251.5 109.5s-92.5 172.167 -92.5 297.5c0 124 31 222.667 93 296s145.667 110 251 110z" />
    <glyph glyph-name="ampersand" unicode="&#x26;" horiz-adv-x="1597" 
d="M498 803c-60.667 -54 -105.167 -107.832 -133.5 -161.499s-42.5 -109.834 -42.5 -168.501c0 -97.333 35.333 -178.333 106 -243s159.334 -97 266.001 -97c63.333 0 122.666 10.5 177.999 31.5s107.333 52.833 156 95.5zM639 915.001l507.999 -519.999
c39.333 59.333 70 122.833 92 190.5s35 139.5 39 215.5h186c-8 -88 -29.333 -175 -64 -261s-83 -171 -145 -255l279 -285h-252l-143 147c-69.333 -59.333 -142 -103.5 -218 -132.5s-157.667 -43.5 -245 -43.5c-160.667 0 -292 45.833 -394 137.5s-153 209.167 -153 352.5
c0 85.333 22.333 165.5 67 240.5s111.667 145.5 201 211.5c-32 42 -56.333 83.833 -73 125.5s-25 82.5 -25 122.5c0 108 37 194.833 111 260.5s172.333 98.5 295 98.5c55.333 0 110.5 -6 165.5 -18s110.833 -30 167.5 -54v-182c-58 31.333 -113.333 55.166 -166 71.499
s-101.667 24.5 -147 24.5c-70 0 -126.833 -18.5 -170.5 -55.5s-65.5 -84.833 -65.5 -143.5c0 -34 9.83301 -68.167 29.5 -102.5s59.834 -82.833 120.501 -145.5z" />
    <glyph glyph-name="quotesingle" unicode="'" horiz-adv-x="563" 
d="M367 1493v-555h-170v555h170z" />
    <glyph glyph-name="parenleft" unicode="(" horiz-adv-x="799" 
d="M635 1554c-89.333 -153.333 -155.668 -305 -199.001 -455s-65 -302 -65 -456s21.833 -306.5 65.5 -457.5s109.834 -302.833 198.501 -455.5h-160c-100 156.667 -174.833 310.667 -224.5 462s-74.5 301.666 -74.5 450.999c0 148.667 24.667 298.334 74 449.001
s124.333 304.667 225 462h160z" />
    <glyph glyph-name="parenright" unicode=")" horiz-adv-x="799" 
d="M164 1554h160c100 -157.333 174.833 -311.333 224.5 -462s74.5 -300.334 74.5 -449.001c0 -149.333 -24.833 -299.666 -74.5 -450.999s-124.5 -305.333 -224.5 -462h-160c88.667 152.667 154.834 304.5 198.501 455.5s65.5 303.5 65.5 457.5s-21.833 306 -65.5 456
s-109.834 301.667 -198.501 455z" />
    <glyph glyph-name="asterisk" unicode="*" 
d="M963 1247l-359 -194l359 -195l-58 -98l-336 203v-377h-114v377l-336 -203l-58 98l359 195l-359 194l58 99l336 -203v377h114v-377l336 203z" />
    <glyph glyph-name="plus" unicode="+" horiz-adv-x="1716" 
d="M942 1284v-557h557v-170h-557v-557h-168v557h-557v170h557v557h168z" />
    <glyph glyph-name="comma" unicode="," horiz-adv-x="651" 
d="M240 254h211v-172l-164 -320h-129l82 320v172z" />
    <glyph glyph-name="hyphen" unicode="-" horiz-adv-x="739" 
d="M100 643h539v-164h-539v164z" />
    <glyph glyph-name="period" unicode="." horiz-adv-x="651" 
d="M219 254h211v-254h-211v254z" />
    <glyph glyph-name="slash" unicode="/" horiz-adv-x="690" 
d="M520 1493h170l-520 -1683h-170z" />
    <glyph glyph-name="zero" unicode="0" horiz-adv-x="1303" 
d="M651 1360c-104 0 -182.167 -51.167 -234.5 -153.5s-78.5 -256.166 -78.5 -461.499c0 -204.667 26.167 -358.167 78.5 -460.5s130.5 -153.5 234.5 -153.5c104.667 0 183.167 51.167 235.5 153.5s78.5 255.833 78.5 460.5c0 205.333 -26.167 359.166 -78.5 461.499
s-130.833 153.5 -235.5 153.5zM651 1520c167.333 0 295.166 -66.167 383.499 -198.5s132.5 -324.5 132.5 -576.5c0 -251.333 -44.167 -443.166 -132.5 -575.499s-216.166 -198.5 -383.499 -198.5s-295.166 66.167 -383.499 198.5s-132.5 324.166 -132.5 575.499
c0 252 44.167 444.167 132.5 576.5s216.166 198.5 383.499 198.5z" />
    <glyph glyph-name="one" unicode="1" horiz-adv-x="1303" 
d="M254 170h330v1139l-359 -72v184l357 72h202v-1323h330v-170h-860v170z" />
    <glyph glyph-name="two" unicode="2" horiz-adv-x="1303" 
d="M393 170l704.997 -0.00390625v-170h-948v170l313.5 319.5c132.333 133.667 215.5 219.834 249.5 258.501c64.667 72.667 109.834 134.167 135.501 184.5s38.5 99.833 38.5 148.5c0 79.333 -27.833 144 -83.5 194s-128.167 75 -217.5 75
c-63.333 0 -130.166 -11 -200.499 -33s-145.5 -55.333 -225.5 -100v204c81.333 32.667 157.333 57.334 228 74.001s135.334 25 194.001 25c154.667 0 278 -38.667 370 -116s138 -180.666 138 -309.999c0 -61.333 -11.5 -119.5 -34.5 -174.5s-64.833 -119.833 -125.5 -194.5
c-16.667 -19.333 -69.667 -75.166 -159 -167.499z" />
    <glyph glyph-name="three" unicode="3" horiz-adv-x="1303" 
d="M831 805c96.667 -20.667 172.164 -63.666 226.497 -128.999s81.5 -146 81.5 -242c0 -147.333 -50.667 -261.333 -152 -342s-245.333 -121 -432 -121c-62.667 0 -127.167 6.16699 -193.5 18.5s-134.833 30.833 -205.5 55.5v195c56 -32.667 117.333 -57.334 184 -74.001
s136.334 -25 209.001 -25c126.667 0 223.167 25 289.5 75s99.5 122.667 99.5 218c0 88 -30.833 156.833 -92.5 206.5s-147.5 74.5 -257.5 74.5h-174v166h182c99.333 0 175.333 19.833 228 59.5s79 96.834 79 171.501c0 76.667 -27.167 135.5 -81.5 176.5
s-132.166 61.5 -233.499 61.5c-55.333 0 -114.666 -6 -177.999 -18s-133 -30.667 -209 -56v180c76.667 21.333 148.5 37.333 215.5 48s130.167 16 189.5 16c153.333 0 274.666 -34.833 363.999 -104.5s134 -163.834 134 -282.501c0 -82.667 -23.667 -152.5 -71 -209.5
s-114.666 -96.5 -201.999 -118.5z" />
    <glyph glyph-name="four" unicode="4" horiz-adv-x="1303" 
d="M774 1317l-510 -797h510v797zM721 1493h254v-973h213v-168h-213v-352h-201v352h-674v195z" />
    <glyph glyph-name="five" unicode="5" horiz-adv-x="1303" 
d="M221 1493h793.002v-170h-608v-366c29.333 10 58.666 17.5 87.999 22.5s58.666 7.5 87.999 7.5c166.667 0 298.667 -45.667 396 -137s146 -215 146 -371c0 -160.667 -50 -285.5 -150 -374.5s-241 -133.5 -423 -133.5c-62.667 0 -126.5 5.33301 -191.5 16
s-132.167 26.667 -201.5 48v203c60 -32.667 122 -57 186 -73s131.667 -24 203 -24c115.333 0 206.666 30.333 273.999 91s101 143 101 247s-33.667 186.333 -101 247s-158.666 91 -273.999 91c-54 0 -107.833 -6 -161.5 -18s-108.5 -30.667 -164.5 -56v750z" />
    <glyph glyph-name="six" unicode="6" horiz-adv-x="1303" 
d="M676 827c-90.667 0 -162.5 -31 -215.5 -93s-79.5 -147 -79.5 -255c0 -107.333 26.5 -192.166 79.5 -254.499s124.833 -93.5 215.5 -93.5s162.5 31.167 215.5 93.5s79.5 147.166 79.5 254.499c0 108 -26.5 193 -79.5 255s-124.833 93 -215.5 93zM1077 1460
l0.00292969 -183.999c-50.667 24 -101.834 42.333 -153.501 55s-102.834 19 -153.501 19c-133.333 0 -235.166 -45 -305.499 -135s-110.5 -226 -120.5 -408c39.333 58 88.666 102.5 147.999 133.5s124.666 46.5 195.999 46.5c150 0 268.5 -45.5 355.5 -136.5
s130.5 -214.833 130.5 -371.5c0 -153.333 -45.333 -276.333 -136 -369s-211.334 -139 -362.001 -139c-172.667 0 -304.667 66.167 -396 198.5s-137 324.166 -137 575.499c0 236 56 424.167 168 564.5s262.333 210.5 451 210.5c50.667 0 101.834 -5 153.501 -15
s105.5 -25 161.5 -45z" />
    <glyph glyph-name="seven" unicode="7" horiz-adv-x="1303" 
d="M168 1493h960v-86l-542 -1407h-211l510 1323h-717v170z" />
    <glyph glyph-name="eight" unicode="8" horiz-adv-x="1303" 
d="M651 709c-96 0 -171.5 -25.667 -226.5 -77s-82.5 -122 -82.5 -212s27.5 -160.667 82.5 -212s130.5 -77 226.5 -77s171.667 25.833 227 77.5s83 122.167 83 211.5c0 90 -27.5 160.667 -82.5 212s-130.833 77 -227.5 77zM449 795
c-86.667 21.333 -154.167 61.666 -202.5 120.999s-72.5 131.666 -72.5 216.999c0 119.333 42.5 213.666 127.5 282.999s201.5 104 349.5 104c148.667 0 265.334 -34.667 350.001 -104s127 -163.666 127 -282.999c0 -85.333 -24.167 -157.666 -72.5 -216.999
s-115.5 -99.666 -201.5 -120.999c97.333 -22.667 173.166 -67 227.499 -133s81.5 -146.667 81.5 -242c0 -144.667 -44.167 -255.667 -132.5 -333s-214.833 -116 -379.5 -116s-291.167 38.667 -379.5 116s-132.5 188.333 -132.5 333c0 95.333 27.333 176 82 242
s130.667 110.333 228 133zM375 1114c0 -77.333 24.167 -137.666 72.5 -180.999s116.166 -65 203.499 -65c86.667 0 154.5 21.667 203.5 65s73.5 103.666 73.5 180.999s-24.5 137.666 -73.5 180.999s-116.833 65 -203.5 65c-87.333 0 -155.166 -21.667 -203.499 -65
s-72.5 -103.666 -72.5 -180.999z" />
    <glyph glyph-name="nine" unicode="9" horiz-adv-x="1303" 
d="M225 31l0.000976562 183.998c50.667 -24 102 -42.333 154 -55s103 -19 153 -19c133.333 0 235.166 44.833 305.499 134.5s110.5 225.834 120.5 408.501c-38.667 -57.333 -87.667 -101.333 -147 -132s-125 -46 -197 -46c-149.333 0 -267.5 45.167 -354.5 135.5
s-130.5 213.833 -130.5 370.5c0 153.333 45.333 276.333 136 369s211.334 139 362.001 139c172.667 0 304.5 -66.167 395.5 -198.5s136.5 -324.5 136.5 -576.5c0 -235.333 -55.833 -423.166 -167.5 -563.499s-261.834 -210.5 -450.501 -210.5c-50.667 0 -102 5 -154 15
s-106 25 -162 45zM627.001 663.998c90.667 0 162.5 31 215.5 93s79.5 147 79.5 255c0 107.333 -26.5 192.166 -79.5 254.499s-124.833 93.5 -215.5 93.5s-162.5 -31.167 -215.5 -93.5s-79.5 -147.166 -79.5 -254.499c0 -108 26.5 -193 79.5 -255s124.833 -93 215.5 -93z" />
    <glyph glyph-name="colon" unicode=":" horiz-adv-x="690" 
d="M240 254h211v-254h-211v254zM240 1059h211v-254h-211v254z" />
    <glyph glyph-name="semicolon" unicode=";" horiz-adv-x="690" 
d="M240 1059h211v-254h-211v254zM240 254h211v-172l-164 -320h-129l82 320v172z" />
    <glyph glyph-name="less" unicode="&#x3c;" horiz-adv-x="1716" 
d="M1499 1008l-1032 -367l1032 -365v-182l-1282 465v166l1282 465v-182z" />
    <glyph glyph-name="equal" unicode="=" horiz-adv-x="1716" 
d="M217 930h1282v-168h-1282v168zM217 522h1282v-170h-1282v170z" />
    <glyph glyph-name="greater" unicode="&#x3e;" horiz-adv-x="1716" 
d="M217 1008v182l1282 -465v-166l-1282 -465v182l1030 365z" />
    <glyph glyph-name="question" unicode="?" horiz-adv-x="1087" 
d="M391 254h203v-254h-203v254zM588 401l-190.998 0.00488281v154c0 67.333 9.33301 122.666 28 165.999s58 93.666 118 150.999l90 89c38 35.333 65.5 68.666 82.5 99.999s25.5 63.333 25.5 96c0 59.333 -21.833 107.333 -65.5 144s-101.5 55 -173.5 55
c-52.667 0 -108.834 -11.667 -168.501 -35s-121.834 -57.333 -186.501 -102v188c62.667 38 126.167 66.333 190.5 85s130.833 28 199.5 28c122.667 0 221.167 -32.333 295.5 -97s111.5 -150 111.5 -256c0 -50.667 -12 -98.834 -36 -144.501s-66 -97.167 -126 -154.5l-88 -86
c-31.333 -31.333 -53.5 -55.833 -66.5 -73.5s-22.167 -34.834 -27.5 -51.501c-4 -14 -7 -31 -9 -51s-3 -47.333 -3 -82v-123z" />
    <glyph glyph-name="at" unicode="@" horiz-adv-x="2048" 
d="M762 537c0 -95.333 23.668 -170.168 71.001 -224.501s112.333 -81.5 195 -81.5c82 0 146.5 27.333 193.5 82s70.5 129.334 70.5 224.001c0 93.333 -24 167.5 -72 222.5s-112.667 82.5 -194 82.5c-80.667 0 -144.834 -27.333 -192.501 -82s-71.5 -129 -71.5 -223z
M1307 237.998c-40 -51.333 -85.835 -89.165 -137.502 -113.498s-111.834 -36.5 -180.501 -36.5c-114.667 0 -207.834 41.5 -279.501 124.5s-107.5 191.167 -107.5 324.5s36 241.666 108 324.999s165 125 279 125c68.667 0 129 -12.5 181 -37.5s97.667 -62.833 137 -113.5
v131h143v-736c97.333 14.667 173.5 59.167 228.5 133.5s82.5 170.5 82.5 288.5c0 71.333 -10.5 138.333 -31.5 201s-52.833 120.667 -95.5 174c-69.333 87.333 -153.833 154.166 -253.5 200.499s-208.167 69.5 -325.5 69.5c-82 0 -160.667 -10.833 -236 -32.5
s-145 -53.834 -209 -96.501c-104.667 -68 -186.5 -157.167 -245.5 -267.5s-88.5 -229.833 -88.5 -358.5c0 -106 19.167 -205.333 57.5 -298s93.833 -174.334 166.5 -245.001c70 -69.333 151 -122.166 243 -158.499s190.333 -54.5 295 -54.5c86 0 170.5 14.5 253.5 43.5
s159.167 70.5 228.5 124.5l90 -111c-83.333 -64.667 -174.166 -114.167 -272.499 -148.5s-198.166 -51.5 -299.499 -51.5c-123.333 0 -239.666 21.833 -348.999 65.5s-206.666 107.167 -291.999 190.5s-150.333 179.833 -195 289.5s-67 227.5 -67 353.5
c0 121.333 22.667 237 68 347s110 206.667 194 290c86 84.667 185.333 149.5 298 194.5s232 67.5 358 67.5c141.333 0 272.5 -29 393.5 -87s222.5 -140.333 304.5 -247c50 -65.333 88.167 -136.333 114.5 -213s39.5 -156 39.5 -238c0 -175.333 -53 -313.666 -159 -414.999
s-252.333 -154 -439 -158v154z" />
    <glyph glyph-name="A" unicode="A" horiz-adv-x="1401" 
d="M700 1294l-274 -743h549zM586 1493h229l569 -1493h-210l-136 383h-673l-136 -383h-213z" />
    <glyph glyph-name="B" unicode="B" horiz-adv-x="1405" 
d="M403 713v-546.999h324c108.667 0 189.167 22.5 241.5 67.5s78.5 113.833 78.5 206.5c0 93.333 -26.167 162.166 -78.5 206.499s-132.833 66.5 -241.5 66.5h-324zM403 1327v-449.999h299c98.667 0 172.167 18.5 220.5 55.5s72.5 93.5 72.5 169.5
c0 75.333 -24.167 131.666 -72.5 168.999s-121.833 56 -220.5 56h-299zM201 1493h516.001c154 0 272.667 -32 356 -96s125 -155 125 -273c0 -91.333 -21.333 -164 -64 -218s-105.334 -87.667 -188.001 -101c99.333 -21.333 176.5 -65.833 231.5 -133.5
s82.5 -152.167 82.5 -253.5c0 -133.333 -45.333 -236.333 -136 -309s-219.667 -109 -387 -109h-536v1493z" />
    <glyph glyph-name="C" unicode="C" horiz-adv-x="1430" 
d="M1319 1378v-212.998c-68 63.333 -140.5 110.666 -217.5 141.999s-158.833 47 -245.5 47c-170.667 0 -301.334 -52.167 -392.001 -156.5s-136 -255.166 -136 -452.499c0 -196.667 45.333 -347.167 136 -451.5s221.334 -156.5 392.001 -156.5
c86.667 0 168.5 15.667 245.5 47s149.5 78.666 217.5 141.999v-211c-70.667 -48 -145.5 -84 -224.5 -108s-162.5 -36 -250.5 -36c-226 0 -404 69.167 -534 207.5s-195 327.166 -195 566.499c0 240 65 429.167 195 567.5s308 207.5 534 207.5
c89.333 0 173.5 -11.833 252.5 -35.5s153.167 -59.167 222.5 -106.5z" />
    <glyph glyph-name="D" unicode="D" horiz-adv-x="1577" 
d="M403 1327v-1161h244c206 0 356.833 46.667 452.5 140s143.5 240.666 143.5 441.999c0 200 -47.833 346.5 -143.5 439.5s-246.5 139.5 -452.5 139.5h-244zM201 1493h415.001c289.333 0 501.666 -60.167 636.999 -180.5s203 -308.5 203 -564.5
c0 -257.333 -68 -446.333 -204 -567s-348 -181 -636 -181h-415v1493z" />
    <glyph glyph-name="E" unicode="E" horiz-adv-x="1294" 
d="M201 1493h944v-170h-742v-442h711v-170h-711v-541h760v-170h-962v1493z" />
    <glyph glyph-name="F" unicode="F" horiz-adv-x="1178" 
d="M201 1493h858v-170h-656v-440h592v-170h-592v-713h-202v1493z" />
    <glyph glyph-name="G" unicode="G" horiz-adv-x="1587" 
d="M1219 213v401h-330v166h530v-641c-78 -55.333 -164 -97.166 -258 -125.499s-194.333 -42.5 -301 -42.5c-233.333 0 -415.833 68.167 -547.5 204.5s-197.5 326.166 -197.5 569.499c0 244 65.833 434.167 197.5 570.5s314.167 204.5 547.5 204.5
c97.333 0 189.833 -12 277.5 -36s168.5 -59.333 242.5 -106v-215c-74.667 63.333 -154 111 -238 143s-172.333 48 -265 48c-182.667 0 -319.834 -51 -411.501 -153s-137.5 -254 -137.5 -456c0 -201.333 45.833 -353 137.5 -455s228.834 -153 411.501 -153
c71.333 0 135 6.16699 191 18.5s106.333 31.5 151 57.5z" />
    <glyph glyph-name="H" unicode="H" horiz-adv-x="1540" 
d="M201 1493h202v-612h734v612h202v-1493h-202v711h-734v-711h-202v1493z" />
    <glyph glyph-name="I" unicode="I" horiz-adv-x="604" 
d="M201 1493h202v-1493h-202v1493z" />
    <glyph glyph-name="J" unicode="J" horiz-adv-x="604" 
d="M201 1493h201.999v-1389c0 -180 -34.167 -310.667 -102.5 -392s-178.166 -122 -329.499 -122h-77v170h63c89.333 0 152.333 25 189 75s55 139.667 55 269v1389z" />
    <glyph glyph-name="K" unicode="K" horiz-adv-x="1343" 
d="M201 1493h202v-631l670 631h260l-741 -696l794 -797h-266l-717 719v-719h-202v1493z" />
    <glyph glyph-name="L" unicode="L" horiz-adv-x="1141" 
d="M201 1493h202v-1323h727v-170h-929v1493z" />
    <glyph glyph-name="M" unicode="M" horiz-adv-x="1767" 
d="M201 1493h301l381 -1016l383 1016h301v-1493h-197v1311l-385 -1024h-203l-385 1024v-1311h-196v1493z" />
    <glyph glyph-name="N" unicode="N" horiz-adv-x="1532" 
d="M201 1493h272l662 -1249v1249h196v-1493h-272l-662 1249v-1249h-196v1493z" />
    <glyph glyph-name="O" unicode="O" horiz-adv-x="1612" 
d="M807 1356c-146.667 0 -263.167 -54.667 -349.5 -164s-129.5 -258.333 -129.5 -447c0 -188 43.167 -336.667 129.5 -446s202.833 -164 349.5 -164s262.834 54.667 348.501 164s128.5 258 128.5 446c0 188.667 -42.833 337.667 -128.5 447s-201.834 164 -348.501 164z
M807 1520c209.333 0 376.666 -70.168 501.999 -210.501s188 -328.5 188 -564.5c0 -235.333 -62.667 -423.166 -188 -563.499s-292.666 -210.5 -501.999 -210.5c-210 0 -377.833 70 -503.5 210s-188.5 328 -188.5 564s62.833 424.167 188.5 564.5s293.5 210.5 503.5 210.5z
" />
    <glyph glyph-name="P" unicode="P" horiz-adv-x="1235" 
d="M403 1327v-561h254c94 0 166.667 24.333 218 73s77 118 77 208c0 89.333 -25.667 158.333 -77 207s-124 73 -218 73h-254zM201 1493l456 -0.000976562c167.333 0 293.833 -37.833 379.5 -113.5s128.5 -186.5 128.5 -332.5c0 -147.333 -42.833 -258.666 -128.5 -333.999
s-212.167 -113 -379.5 -113h-254v-600h-202v1493z" />
    <glyph glyph-name="Q" unicode="Q" horiz-adv-x="1612" 
d="M807 1356c-146.667 0 -263.167 -54.667 -349.5 -164s-129.5 -258.333 -129.5 -447c0 -188 43.167 -336.667 129.5 -446s202.833 -164 349.5 -164s262.834 54.667 348.501 164s128.5 258 128.5 446c0 188.667 -42.833 337.667 -128.5 447s-201.834 164 -348.501 164z
M1090 27l266.002 -291h-244l-221 239l-50.5 -3c-11.667 -0.666992 -22.834 -1 -33.501 -1c-210 0 -377.833 70.167 -503.5 210.5s-188.5 328.166 -188.5 563.499c0 236 62.833 424.167 188.5 564.5s293.5 210.5 503.5 210.5c209.333 0 376.666 -70.167 501.999 -210.5
s188 -328.5 188 -564.5c0 -173.333 -34.833 -321.666 -104.5 -444.999s-170.5 -214.333 -302.5 -273z" />
    <glyph glyph-name="R" unicode="R" horiz-adv-x="1423" 
d="M909 700c43.333 -14.667 85.499 -46 126.499 -94s82.167 -114 123.5 -198l205 -408h-217l-191 383c-49.333 100 -97.166 166.333 -143.499 199s-109.5 49 -189.5 49h-220v-631h-202v1493h456c170.667 0 298 -35.667 382 -107s126 -179 126 -323
c0 -94 -21.833 -172 -65.5 -234s-107.167 -105 -190.5 -129zM402.999 1327v-529.999h254c97.333 0 170.833 22.5 220.5 67.5s74.5 111.167 74.5 198.5s-24.833 153.166 -74.5 197.499s-123.167 66.5 -220.5 66.5h-254z" />
    <glyph glyph-name="S" unicode="S" horiz-adv-x="1300" 
d="M1096 1444l-0.000976562 -196.997c-76.667 36.667 -149 64 -217 82s-133.667 27 -197 27c-110 0 -194.833 -21.333 -254.5 -64s-89.5 -103.334 -89.5 -182.001c0 -66 19.833 -115.833 59.5 -149.5s114.834 -60.834 225.501 -81.501l122 -25
c150.667 -28.667 261.834 -79.167 333.501 -151.5s107.5 -169.166 107.5 -290.499c0 -144.667 -48.5 -254.334 -145.5 -329.001s-239.167 -112 -426.5 -112c-70.667 0 -145.834 8 -225.501 24s-162.167 39.667 -247.5 71v208c82 -46 162.333 -80.667 241 -104
s156 -35 232 -35c115.333 0 204.333 22.667 267 68s94 110 94 194c0 73.333 -22.5 130.666 -67.5 171.999s-118.833 72.333 -221.5 93l-123 24c-150.667 30 -259.667 77 -327 141s-101 153 -101 267c0 132 46.5 236 139.5 312s221.167 114 384.5 114
c70 0 141.333 -6.33301 214 -19s147 -31.667 223 -57z" />
    <glyph glyph-name="T" unicode="T" horiz-adv-x="1251" 
d="M-6 1493h1263v-170h-530v-1323h-203v1323h-530v170z" />
    <glyph glyph-name="U" unicode="U" horiz-adv-x="1499" 
d="M178 1493h203v-907c0 -160 29 -275.167 87 -345.5s152 -105.5 282 -105.5c129.333 0 223 35.167 281 105.5s87 185.5 87 345.5v907h203v-932c0 -194.667 -48.167 -341.667 -144.5 -441s-238.5 -149 -426.5 -149c-188.667 0 -331.167 49.667 -427.5 149
s-144.5 246.333 -144.5 441v932z" />
    <glyph glyph-name="V" unicode="V" horiz-adv-x="1401" 
d="M586 0l-570 1493h211l473 -1257l474 1257h210l-569 -1493h-229z" />
    <glyph glyph-name="W" unicode="W" horiz-adv-x="2025" 
d="M68 1493h204l314 -1262l313 1262h227l314 -1262l313 1262h205l-375 -1493h-254l-315 1296l-318 -1296h-254z" />
    <glyph glyph-name="X" unicode="X" horiz-adv-x="1403" 
d="M129 1493h217l371 -555l373 555h217l-480 -717l512 -776h-217l-420 635l-423 -635h-218l533 797z" />
    <glyph glyph-name="Y" unicode="Y" horiz-adv-x="1251" 
d="M-4 1493h217l414 -614l411 614h217l-528 -782v-711h-203v711z" />
    <glyph glyph-name="Z" unicode="Z" horiz-adv-x="1403" 
d="M115 1493h1173v-154l-944 -1169h967v-170h-1219v154l944 1169h-921v170z" />
    <glyph glyph-name="bracketleft" unicode="[" horiz-adv-x="799" 
d="M176 1556h424v-143h-240v-1540h240v-143h-424v1826z" />
    <glyph glyph-name="backslash" unicode="\" horiz-adv-x="690" 
d="M170 1493l520 -1683h-170l-520 1683h170z" />
    <glyph glyph-name="bracketright" unicode="]" horiz-adv-x="799" 
d="M623 1556v-1826h-424v143h239v1540h-239v143h424z" />
    <glyph glyph-name="asciicircum" unicode="^" horiz-adv-x="1716" 
d="M956 1493l543 -557h-201l-440 395l-440 -395h-201l543 557h196z" />
    <glyph glyph-name="underscore" unicode="_" 
d="M1044 -340v-143h-1064v143h1064z" />
    <glyph glyph-name="grave" unicode="`" 
d="M77 1493h961.999v-2c-56.667 -87.333 -88.667 -134 -96 -140h-257c35.333 -41.333 59.333 -91.666 72 -150.999h274c3.33301 -0.666992 5 -2 5 -4c-61.333 -92 -92.666 -138 -93.999 -138h-178c-4 -47.333 -26.667 -104.333 -68 -171
c-54.667 -67.333 -107 -111 -157 -131c-93.333 -44.667 -182.666 -67 -267.999 -67v-2c0 -6.66699 21 -34.334 63 -83.001l475 -573v-27c0 -2.66699 -1.66699 -4 -5 -4h-209c-376 438 -564 658 -564 660v133l2 5c33.333 -4.66699 72.333 -7 117 -7
c210.667 0 341.667 68.333 393 205c8 20 12 40.667 12 62h-572c-2.66699 0 -4 1.33301 -4 4c63.333 92 95.666 138 96.999 138h454v2c-26 52.667 -76.333 93.667 -151 123c-53.333 17.333 -101.333 26 -144 26h-254v5c61.333 91.333 93 137 95 137z" />
    <glyph glyph-name="a" unicode="a" horiz-adv-x="1255" 
d="M702 563c-148.667 0 -251.667 -17.001 -309 -51.001s-86 -92 -86 -174c0 -65.333 21.5 -117.166 64.5 -155.499s101.5 -57.5 175.5 -57.5c102 0 183.833 36.167 245.5 108.5s92.5 168.5 92.5 288.5v41h-183zM1069 638.999l0.00488281 -639h-184v170
c-42 -68 -94.333 -118.167 -157 -150.5s-139.334 -48.5 -230.001 -48.5c-114.667 0 -205.834 32.167 -273.501 96.5s-101.5 150.5 -101.5 258.5c0 126 42.167 221 126.5 285s210.166 96 377.499 96h258v18c0 84.667 -27.833 150.167 -83.5 196.5
s-133.834 69.5 -234.501 69.5c-64 0 -126.333 -7.66699 -187 -23s-119 -38.333 -175 -69v170c67.333 26 132.666 45.5 195.999 58.5s125 19.5 185 19.5c162 0 283 -42 363 -126s120 -211.333 120 -382z" />
    <glyph glyph-name="b" unicode="b" horiz-adv-x="1300" 
d="M997 559c0 135.333 -27.833 241.5 -83.5 318.5s-132.167 115.5 -229.5 115.5s-173.833 -38.5 -229.5 -115.5s-83.5 -183.167 -83.5 -318.5s27.833 -241.5 83.5 -318.5s132.167 -115.5 229.5 -115.5s173.833 38.5 229.5 115.5s83.5 183.167 83.5 318.5zM371 950
c38.667 66.667 87.5 116.167 146.5 148.5s129.5 48.5 211.5 48.5c136 0 246.5 -54 331.5 -162s127.5 -250 127.5 -426s-42.5 -318 -127.5 -426s-195.5 -162 -331.5 -162c-82 0 -152.5 16.167 -211.5 48.5s-107.833 81.833 -146.5 148.5v-168h-185v1556h185v-606z" />
    <glyph glyph-name="c" unicode="c" horiz-adv-x="1126" 
d="M999 1077v-171.999c-52 28.667 -104.167 50.167 -156.5 64.5s-105.166 21.5 -158.499 21.5c-119.333 0 -212 -37.833 -278 -113.5s-99 -181.834 -99 -318.501s33 -242.834 99 -318.501s158.667 -113.5 278 -113.5c53.333 0 106.166 7.16699 158.499 21.5
s104.5 35.833 156.5 64.5v-170c-51.333 -24 -104.5 -42 -159.5 -54s-113.5 -18 -175.5 -18c-168.667 0 -302.667 53 -402 159s-149 249 -149 429c0 182.667 50.167 326.334 150.5 431.001s237.833 157 412.5 157c56.667 0 112 -5.83301 166 -17.5s106.333 -29.167 157 -52.5
z" />
    <glyph glyph-name="d" unicode="d" horiz-adv-x="1300" 
d="M930 950v606h184v-1556h-184v168c-38.667 -66.667 -87.5 -116.167 -146.5 -148.5s-129.833 -48.5 -212.5 -48.5c-135.333 0 -245.5 54 -330.5 162s-127.5 250 -127.5 426s42.5 318 127.5 426s195.167 162 330.5 162c82.667 0 153.5 -16.167 212.5 -48.5
s107.833 -81.833 146.5 -148.5zM303 559c0 -135.333 27.833 -241.5 83.5 -318.5s132.167 -115.5 229.5 -115.5s174 38.5 230 115.5s84 183.167 84 318.5s-28 241.5 -84 318.5s-132.667 115.5 -230 115.5s-173.833 -38.5 -229.5 -115.5s-83.5 -183.167 -83.5 -318.5z" />
    <glyph glyph-name="e" unicode="e" horiz-adv-x="1260" 
d="M1151 606l-0.000976562 -90h-846c8 -126.667 46.167 -223.167 114.5 -289.5s163.5 -99.5 285.5 -99.5c70.667 0 139.167 8.66699 205.5 26s132.166 43.333 197.499 78v-174c-66 -28 -133.667 -49.333 -203 -64s-139.666 -22 -210.999 -22
c-178.667 0 -320.167 52 -424.5 156s-156.5 244.667 -156.5 422c0 183.333 49.5 328.833 148.5 436.5s232.5 161.5 400.5 161.5c150.667 0 269.834 -48.5 357.501 -145.5s131.5 -228.833 131.5 -395.5zM966.999 660c-1.33301 100.667 -29.499 181 -84.499 241
s-127.833 90 -218.5 90c-102.667 0 -184.834 -29 -246.501 -87s-97.167 -139.667 -106.5 -245z" />
    <glyph glyph-name="f" unicode="f" horiz-adv-x="721" 
d="M760 1556v-153h-176c-66 0 -111.833 -13.333 -137.5 -40s-38.5 -74.667 -38.5 -144v-99h303v-143h-303v-977h-185v977h-176v143h176v78c0 124.667 29 215.5 87 272.5s150 85.5 276 85.5h174z" />
    <glyph glyph-name="g" unicode="g" horiz-adv-x="1300" 
d="M930 573c0 133.333 -27.5 236.666 -82.5 309.999s-132.167 110 -231.5 110c-98.667 0 -175.5 -36.667 -230.5 -110s-82.5 -176.666 -82.5 -309.999c0 -132.667 27.5 -235.667 82.5 -309s131.833 -110 230.5 -110c99.333 0 176.5 36.667 231.5 110s82.5 176.333 82.5 309z
M1114 139c0 -190.667 -42.333 -332.501 -127 -425.501s-214.334 -139.5 -389.001 -139.5c-64.667 0 -125.667 4.83301 -183 14.5s-113 24.5 -167 44.5v179c54 -29.333 107.333 -51 160 -65s106.334 -21 161.001 -21c120.667 0 211 31.5 271 94.5s90 158.167 90 285.5v91
c-38 -66 -86.667 -115.333 -146 -148s-130.333 -49 -213 -49c-137.333 0 -248 52.333 -332 157s-126 243.334 -126 416.001c0 173.333 42 312.333 126 417s194.667 157 332 157c82.667 0 153.667 -16.333 213 -49s108 -82 146 -148v170h184v-981z" />
    <glyph glyph-name="h" unicode="h" horiz-adv-x="1298" 
d="M1124 676l-0.000976562 -675.999h-184v670c0 106 -20.667 185.333 -62 238s-103.333 79 -186 79c-99.333 0 -177.666 -31.667 -234.999 -95s-86 -149.666 -86 -258.999v-633h-185v1556h185v-610c44 67.333 95.833 117.666 155.5 150.999s128.5 50 206.5 50
c128.667 0 226 -39.833 292 -119.5s99 -196.834 99 -351.501z" />
    <glyph glyph-name="i" unicode="i" horiz-adv-x="569" 
d="M193 1120h184v-1120h-184v1120zM193 1556h184v-233h-184v233z" />
    <glyph glyph-name="j" unicode="j" horiz-adv-x="569" 
d="M193 1120h184v-1140c0 -142.667 -27.167 -246 -81.5 -310s-141.833 -96 -262.5 -96h-70v156h49c70 0 117.667 16.167 143 48.5s38 99.5 38 201.5v1140zM193 1556h184v-233h-184v233z" />
    <glyph glyph-name="k" unicode="k" horiz-adv-x="1186" 
d="M186 1556h185v-919l549 483h235l-594 -524l619 -596h-240l-569 547v-547h-185v1556z" />
    <glyph glyph-name="l" unicode="l" horiz-adv-x="569" 
d="M193 1556h184v-1556h-184v1556z" />
    <glyph glyph-name="m" unicode="m" horiz-adv-x="1995" 
d="M1065 905c46 82.667 100.998 143.667 164.998 183s139.333 59 226 59c116.667 0 206.667 -40.833 270 -122.5s95 -197.834 95 -348.501v-676h-185v670c0 107.333 -19 187 -57 239s-96 78 -174 78c-95.333 0 -170.666 -31.667 -225.999 -95s-83 -149.666 -83 -258.999
v-633h-185v670c0 108 -19 187.833 -57 239.5s-96.667 77.5 -176 77.5c-94 0 -168.667 -31.833 -224 -95.5s-83 -149.834 -83 -258.501v-633h-185v1120h185v-174c42 68.667 92.333 119.334 151 152.001s128.334 49 209.001 49c81.333 0 150.5 -20.667 207.5 -62
s99.167 -101.333 126.5 -180z" />
    <glyph glyph-name="n" unicode="n" horiz-adv-x="1298" 
d="M1124 676l-0.000976562 -675.999h-184v670c0 106 -20.667 185.333 -62 238s-103.333 79 -186 79c-99.333 0 -177.666 -31.667 -234.999 -95s-86 -149.666 -86 -258.999v-633h-185v1120h185v-174c44 67.333 95.833 117.666 155.5 150.999s128.5 50 206.5 50
c128.667 0 226 -39.833 292 -119.5s99 -196.834 99 -351.501z" />
    <glyph glyph-name="o" unicode="o" horiz-adv-x="1253" 
d="M627 991c-98.667 0 -176.667 -38.5 -234 -115.5s-86 -182.5 -86 -316.5s28.5 -239.5 85.5 -316.5s135.167 -115.5 234.5 -115.5c98 0 175.667 38.667 233 116s86 182.666 86 315.999c0 132.667 -28.667 237.834 -86 315.501s-135 116.5 -233 116.5zM627 1147
c160 0 285.667 -52 377 -156s137 -248 137 -432c0 -183.333 -45.667 -327.166 -137 -431.499s-217 -156.5 -377 -156.5c-160.667 0 -286.5 52.167 -377.5 156.5s-136.5 248.166 -136.5 431.499c0 184 45.5 328 136.5 432s216.833 156 377.5 156z" />
    <glyph glyph-name="p" unicode="p" horiz-adv-x="1300" 
d="M371 168v-594h-185v1546h185v-170c38.667 66.667 87.5 116.167 146.5 148.5s129.5 48.5 211.5 48.5c136 0 246.5 -54 331.5 -162s127.5 -250 127.5 -426s-42.5 -318 -127.5 -426s-195.5 -162 -331.5 -162c-82 0 -152.5 16.167 -211.5 48.5s-107.833 81.833 -146.5 148.5z
M997 559c0 135.333 -27.833 241.5 -83.5 318.5s-132.167 115.5 -229.5 115.5s-173.833 -38.5 -229.5 -115.5s-83.5 -183.167 -83.5 -318.5s27.833 -241.5 83.5 -318.5s132.167 -115.5 229.5 -115.5s173.833 38.5 229.5 115.5s83.5 183.167 83.5 318.5z" />
    <glyph glyph-name="q" unicode="q" horiz-adv-x="1300" 
d="M303 559c0 -135.333 27.833 -241.5 83.5 -318.5s132.167 -115.5 229.5 -115.5s174 38.5 230 115.5s84 183.167 84 318.5s-28 241.5 -84 318.5s-132.667 115.5 -230 115.5s-173.833 -38.5 -229.5 -115.5s-83.5 -183.167 -83.5 -318.5zM930 168
c-38.667 -66.667 -87.5 -116.167 -146.5 -148.5s-129.833 -48.5 -212.5 -48.5c-135.333 0 -245.5 54 -330.5 162s-127.5 250 -127.5 426s42.5 318 127.5 426s195.167 162 330.5 162c82.667 0 153.5 -16.167 212.5 -48.5s107.833 -81.833 146.5 -148.5v170h184v-1546h-184
v594z" />
    <glyph glyph-name="r" unicode="r" horiz-adv-x="842" 
d="M842 948c-20.667 12 -43.168 20.834 -67.501 26.501s-51.166 8.5 -80.499 8.5c-104 0 -183.833 -33.833 -239.5 -101.5s-83.5 -164.834 -83.5 -291.501v-590h-185v1120h185v-174c38.667 68 89 118.5 151 151.5s137.333 49.5 226 49.5c12.667 0 26.667 -0.833008 42 -2.5
s32.333 -4.16699 51 -7.5z" />
    <glyph glyph-name="s" unicode="s" horiz-adv-x="1067" 
d="M907 1087l-0.00195312 -174.001c-52 26.667 -106 46.667 -162 60s-114 20 -174 20c-91.333 0 -159.833 -14 -205.5 -42s-68.5 -70 -68.5 -126c0 -42.667 16.333 -76.167 49 -100.5s98.334 -47.5 197.001 -69.5l63 -14c130.667 -28 223.5 -67.5 278.5 -118.5
s82.5 -122.167 82.5 -213.5c0 -104 -41.167 -186.333 -123.5 -247s-195.5 -91 -339.5 -91c-60 0 -122.5 5.83301 -187.5 17.5s-133.5 29.167 -205.5 52.5v190c68 -35.333 135 -61.833 201 -79.5s131.333 -26.5 196 -26.5c86.667 0 153.334 14.833 200.001 44.5
s70 71.5 70 125.5c0 50 -16.833 88.333 -50.5 115s-107.5 52.334 -221.5 77.001l-64 15c-114 24 -196.333 60.833 -247 110.5s-76 117.834 -76 204.501c0 105.333 37.333 186.666 112 243.999s180.667 86 318 86c68 0 132 -5 192 -15s115.333 -25 166 -45z" />
    <glyph glyph-name="t" unicode="t" horiz-adv-x="803" 
d="M375 1438v-318h379v-143h-379v-608c0 -91.333 12.5 -150 37.5 -176s75.833 -39 152.5 -39h189v-154h-189c-142 0 -240 26.5 -294 79.5s-81 149.5 -81 289.5v608h-135v143h135v318h185z" />
    <glyph glyph-name="u" unicode="u" horiz-adv-x="1298" 
d="M174 442l0.000976562 678.001h184v-671c0 -106 20.667 -185.5 62 -238.5s103.333 -79.5 186 -79.5c99.333 0 177.833 31.667 235.5 95s86.5 149.666 86.5 258.999v635h184v-1120h-184v172c-44.667 -68 -96.5 -118.5 -155.5 -151.5s-127.5 -49.5 -205.5 -49.5
c-128.667 0 -226.334 40 -293.001 120s-100 197 -100 351z" />
    <glyph glyph-name="v" unicode="v" horiz-adv-x="1212" 
d="M61 1120h195l350 -940l350 940h195l-420 -1120h-250z" />
    <glyph glyph-name="w" unicode="w" horiz-adv-x="1675" 
d="M86 1120h184l230 -874l229 874h217l230 -874l229 874h184l-293 -1120h-217l-241 918l-242 -918h-217z" />
    <glyph glyph-name="x" unicode="x" horiz-adv-x="1212" 
d="M1124 1120l-405 -545l426 -575h-217l-326 440l-326 -440h-217l435 586l-398 534h217l297 -399l297 399h217z" />
    <glyph glyph-name="y" unicode="y" horiz-adv-x="1212" 
d="M659 -104c-52 -133.333 -102.667 -220.333 -152 -261s-115.333 -61 -198 -61h-147v154h108c50.667 0 90 12 118 36s59 80.667 93 170l33 84l-453 1102h195l350 -876l350 876h195z" />
    <glyph glyph-name="z" unicode="z" horiz-adv-x="1075" 
d="M113 1120h874v-168l-692 -805h692v-147h-899v168l692 805h-667v147z" />
    <glyph glyph-name="braceleft" unicode="{" horiz-adv-x="1303" 
d="M1047 -190l-0.000976562 -143.999h-62c-166 0 -277.167 24.667 -333.5 74s-84.5 147.666 -84.5 294.999v239c0 100.667 -18 170.334 -54 209.001s-101.333 58 -196 58h-61v143h61c95.333 0 160.833 19.167 196.5 57.5s53.5 107.166 53.5 206.499v240
c0 147.333 28.167 245.5 84.5 294.5s167.5 73.5 333.5 73.5h62v-143h-68c-94 0 -155.333 -14.667 -184 -44s-43 -91 -43 -185v-248c0 -104.667 -15.167 -180.667 -45.5 -228s-82.166 -79.333 -155.499 -96c74 -18 126 -50.667 156 -98s45 -123 45 -227v-248
c0 -94 14.333 -155.667 43 -185s90 -44 184 -44h68z" />
    <glyph glyph-name="bar" unicode="|" horiz-adv-x="690" 
d="M430 1565v-2048h-170v2048h170z" />
    <glyph glyph-name="braceright" unicode="}" horiz-adv-x="1303" 
d="M256 -190l70 -0.000976562c93.333 0 154.166 14.333 182.499 43s42.5 90.667 42.5 186v248c0 104 15 179.667 45 227s82 80 156 98c-74 16.667 -126 48.667 -156 96s-45 123.333 -45 228v248c0 94.667 -14.167 156.5 -42.5 185.5s-89.166 43.5 -182.499 43.5h-70v143h63
c166 0 276.833 -24.5 332.5 -73.5s83.5 -147.167 83.5 -294.5v-240c0 -99.333 18 -168.166 54 -206.499s101.333 -57.5 196 -57.5h62v-143h-62c-94.667 0 -160 -19.333 -196 -58s-54 -108.334 -54 -209.001v-239c0 -147.333 -27.833 -245.666 -83.5 -294.999
s-166.5 -74 -332.5 -74h-63v144z" />
    <glyph glyph-name="asciitilde" unicode="~" horiz-adv-x="1716" 
d="M1499 817l-0.00195312 -177.999c-70 -52.667 -134.833 -90.334 -194.5 -113.001s-121.834 -34 -186.501 -34c-73.333 0 -158.666 19.667 -255.999 59c-7.33301 2.66699 -12.666 4.66699 -15.999 6c-4.66699 2 -12 4.66699 -22 8c-103.333 41.333 -186.333 62 -249 62
c-58.667 0 -116.667 -12.833 -174 -38.5s-118.666 -66.167 -183.999 -121.5v178c70 52.667 134.833 90.5 194.5 113.5s121.834 34.5 186.501 34.5c73.333 0 159 -20 257 -60l15 -6l22 -8c103.333 -41.333 186.333 -62 249 -62c57.333 0 114.166 12.667 170.499 38
s118.833 66 187.5 122z" />
    <glyph glyph-name="nonbreakingspace" unicode="&#xa0;" horiz-adv-x="1303" 
 />
    <glyph glyph-name="exclamdown" unicode="&#xa1;" horiz-adv-x="821" 
d="M512 1239h-203v254h203v-254zM512 0h-203v655l21 357h162l20 -357v-655z" />
    <glyph glyph-name="cent" unicode="&#xa2;" horiz-adv-x="1303" 
d="M678 131v855.998c-98 -12 -174.333 -55.667 -229 -131s-82 -174.333 -82 -297c0 -123.333 27.333 -222.666 82 -297.999s131 -118.666 229 -129.999zM1059 1077l-0.00390625 -171.997c-49.333 27.333 -96.666 48 -141.999 62s-90.666 22 -135.999 24l-1 -864
c46.667 3.33301 92.834 12 138.501 26s92.5 34 140.5 60v-170c-43.333 -20 -87.833 -35.833 -133.5 -47.5s-94.167 -19.834 -145.5 -24.501v-284h-102v288c-160.667 13.333 -285.167 71.166 -373.5 173.499s-132.5 239.166 -132.5 410.499c0 172 44.167 309 132.5 411
s212.833 160.333 373.5 175v287h102l1 -287c48.667 -2.66699 95.834 -9.5 141.501 -20.5s91.167 -26.833 136.5 -47.5z" />
    <glyph glyph-name="sterling" unicode="&#xa3;" horiz-adv-x="1303" 
d="M1102 1460l0.000976562 -182.001c-50.667 27.333 -98.667 47.833 -144 61.5s-88.333 20.5 -129 20.5c-98.667 0 -167.334 -25.833 -206.001 -77.5s-58 -148.167 -58 -289.5v-215h391v-143h-391v-465h557v-170h-993v170h236v465h-199v143h199v238
c0 174 35.667 301.5 107 382.5s184.333 121.5 339 121.5c40.667 0 86.167 -5.16699 136.5 -15.5s101.833 -25.166 154.5 -44.499z" />
    <glyph glyph-name="currency" unicode="&#xa4;" horiz-adv-x="1303" 
d="M891 993l207 209.001l114 -115l-206 -206c24.667 -39.333 43 -78.833 55 -118.5s18 -80.167 18 -121.5c0 -42 -6.33301 -82.167 -19 -120.5s-32.334 -76.5 -59.001 -114.5l209 -207l-114 -113l-207 207c-39.333 -26.667 -78.333 -46.334 -117 -59.001
s-78.334 -19 -119.001 -19c-38.667 0 -78 6.16699 -118 18.5s-80.333 30.833 -121 55.5l-207 -207l-113 115l207 206c-24.667 41.333 -43.167 81.666 -55.5 120.999s-18.5 78.333 -18.5 117c0 42.667 6.33301 83.334 19 122.001s31.667 76.667 57 114l-207 206l115 115
l207 -207c36.667 26 74.334 45.167 113.001 57.5s79.334 18.5 122.001 18.5c40 0 79.5 -6 118.5 -18s78.833 -30.667 119.5 -56zM922 643.001c0 74.667 -25.8311 137.668 -77.498 189.001s-115.5 77 -191.5 77c-74.667 0 -138.334 -25.667 -191.001 -77
s-79 -114.333 -79 -189c0 -76 26.167 -140 78.5 -192s116.166 -78 191.499 -78s139 26.167 191 78.5s78 116.166 78 191.499z" />
    <glyph glyph-name="yen" unicode="&#xa5;" horiz-adv-x="1303" 
d="M1165 455h-413v-455h-201v455h-416v123h416v51l-84 155h-332v123h264l-317 586h190l379 -700l377 700h191l-318 -586h264v-123h-331l-84 -155v-51h415v-123z" />
    <glyph glyph-name="brokenbar" unicode="&#xa6;" horiz-adv-x="690" 
d="M430 408v-758h-170v758h170zM430 1432v-758h-170v758h170z" />
    <glyph glyph-name="section" unicode="&#xa7;" 
d="M379 936c-42 -30.667 -73.333 -61 -94 -91s-31 -60.333 -31 -91c0 -50.667 23.167 -98.167 69.5 -142.5s152.833 -111.5 319.5 -201.5c42 30 73.333 60.167 94 90.5s31 60.833 31 91.5c0 50 -23.833 97.667 -71.5 143s-153.5 112.333 -317.5 201zM829 1462
l-0.000976562 -164.003c-55.333 26 -106.833 45.5 -154.5 58.5s-90.167 19.5 -127.5 19.5c-64.667 0 -115 -13.333 -151 -40s-54 -63.667 -54 -111c0 -60 68.667 -128.333 206 -205l40 -23c140.667 -79.333 232.834 -144.666 276.501 -195.999s65.5 -110.666 65.5 -177.999
c0 -60 -15.333 -113.333 -46 -160s-77 -87.667 -139 -123c41.333 -34.667 71.5 -70.167 90.5 -106.5s28.5 -75.833 28.5 -118.5c0 -94.667 -34 -170 -102 -226s-159.667 -84 -275 -84c-48.667 0 -98.667 4.83301 -150 14.5s-106.333 24.167 -165 43.5v164
c58 -26 111.667 -45.5 161 -58.5s93.333 -19.5 132 -19.5c68 0 120.833 14 158.5 42s56.5 67.333 56.5 118c0 68 -73.667 143 -221 225l-25 14c-142.667 80 -235.334 145.5 -278.001 196.5s-64 110.5 -64 178.5c0 60.667 15.5 114.834 46.5 162.501
s76.833 87.834 137.5 120.501c-39.333 29.333 -68.833 62.666 -88.5 99.999s-29.5 79 -29.5 125c0 86.667 33.333 156.5 100 209.5s155.334 79.5 266.001 79.5c48.667 0 98.5 -4.83301 149.5 -14.5s102.833 -24.167 155.5 -43.5z" />
    <glyph glyph-name="dieresis" unicode="&#xa8;" 
d="M606 1552h203v-202h-203v202zM215 1552h203v-202h-203v202z" />
    <glyph glyph-name="copyright" unicode="&#xa9;" horiz-adv-x="2048" 
d="M1024 1485c101.333 0 195.833 -18.333 283.5 -55s167.834 -91.334 240.501 -164.001s127 -152.667 163 -240s54 -182.333 54 -285c0 -101.333 -18 -195.5 -54 -282.5s-90.333 -166.833 -163 -239.5s-152.834 -127.334 -240.501 -164.001s-182.167 -55 -283.5 -55
s-195.833 18.333 -283.5 55s-167.834 91.334 -240.501 164.001s-127 152.5 -163 239.5s-54 181.167 -54 282.5c0 102.667 18 197.667 54 285s90.333 167.333 163 240s152.834 127.334 240.501 164.001s182.167 55 283.5 55zM1024 1382
c-87.333 0 -168.667 -15.666 -244 -46.999s-144.333 -78.333 -207 -141s-110 -132.167 -142 -208.5s-48 -157.833 -48 -244.5c0 -86 16 -166.833 48 -242.5s79.333 -144.834 142 -207.501s131.667 -109.834 207 -141.501s156.666 -47.5 243.999 -47.5
c88 0 169.833 15.833 245.5 47.5s144.834 78.834 207.501 141.501c62 62 108.5 130.667 139.5 206s46.5 156.666 46.5 243.999c0 88.667 -15.667 170.834 -47 246.501s-77.666 144.5 -138.999 206.5c-62.667 62.667 -131.834 109.667 -207.501 141s-157.5 47 -245.5 47z
M1323 1137l0.00195312 -129.001c-44 22 -87.667 38.333 -131 49s-87 16 -131 16c-99.333 0 -176.833 -29.167 -232.5 -87.5s-83.5 -139.833 -83.5 -244.5c0 -106 28.5 -188 85.5 -246s137.167 -87 240.5 -87c42.667 0 84.334 5.16699 125.001 15.5s83 26.833 127 49.5v-127
c-44.667 -19.333 -89.834 -33.666 -135.501 -42.999s-91.834 -14 -138.501 -14c-144 0 -257.833 40.667 -341.5 122s-125.5 191.333 -125.5 330c0 139.333 41.833 249.333 125.5 330s197.5 121 341.5 121c48.667 0 95.667 -4.66699 141 -14s89.666 -23 132.999 -41z" />
    <glyph glyph-name="ordfeminine" unicode="&#xaa;" horiz-adv-x="965" 
d="M139 592h688v-123h-688v123zM825 1165l-0.00195312 -448h-149v112c-29.333 -42 -68 -74.333 -116 -97s-103 -34 -165 -34c-85.333 0 -153.333 22.5 -204 67.5s-76 105.167 -76 180.5c0 90 31.833 158 95.5 204s158.167 69 283.5 69h182v4
c0 60.667 -19.5 106.167 -58.5 136.5s-97.5 45.5 -175.5 45.5c-41.333 0 -84.666 -5.66699 -129.999 -17s-90.666 -28.333 -135.999 -51v127c48.667 18.667 97.167 32.667 145.5 42s95.5 14 141.5 14c122 0 212.833 -29.333 272.5 -88s89.5 -147.667 89.5 -267z
M548.998 1104c-107.333 0 -182 -11.166 -224 -33.499s-63 -59.833 -63 -112.5c0 -42.667 16.333 -76.834 49 -102.501s76.334 -38.5 131.001 -38.5c69.333 0 125.666 24 168.999 72s65 110 65 186v29h-127z" />
    <glyph glyph-name="guillemotleft" unicode="&#xab;" horiz-adv-x="1253" 
d="M1061 1059v-191l-301 -268l301 -268v-191l-469 418v82zM627 1059v-191l-301 -268l301 -268v-191l-469 418v82z" />
    <glyph glyph-name="logicalnot" unicode="&#xac;" horiz-adv-x="1716" 
d="M217 862h1282v-575h-168v405h-1114v170z" />
    <glyph glyph-name="sfthyphen" unicode="&#xad;" horiz-adv-x="739" 
d="M100 643h539v-164h-539v164z" />
    <glyph glyph-name="registered" unicode="&#xae;" horiz-adv-x="2048" 
d="M1024 1382c-87.333 0 -168.667 -15.666 -244 -46.999s-144.333 -78.333 -207 -141s-110 -132.167 -142 -208.5s-48 -157.833 -48 -244.5c0 -86 16 -166.833 48 -242.5s79.333 -144.834 142 -207.501s131.667 -109.834 207 -141.501s156.666 -47.5 243.999 -47.5
c88 0 169.833 15.833 245.5 47.5s144.834 78.834 207.501 141.501c62 62 108.5 130.667 139.5 206s46.5 156.666 46.5 243.999c0 88.667 -15.667 170.834 -47 246.501s-77.666 144.5 -138.999 206.5c-62.667 62.667 -131.834 109.667 -207.501 141s-157.5 47 -245.5 47z
M1024 1485c101.333 0 195.833 -18.333 283.5 -55s167.834 -91.334 240.501 -164.001s127 -152.667 163 -240s54 -182.333 54 -285c0 -101.333 -18 -195.5 -54 -282.5s-90.333 -166.833 -163 -239.5s-152.834 -127.334 -240.501 -164.001s-182.167 -55 -283.5 -55
s-195.833 18.333 -283.5 55s-167.834 91.334 -240.501 164.001s-127 152.5 -163 239.5s-54 181.167 -54 282.5c0 102.667 18 197.667 54 285s90.333 167.333 163 240s152.834 127.334 240.501 164.001s182.167 55 283.5 55zM996.999 1071h-123v-276h123
c73.333 0 124.5 10.333 153.5 31s43.5 56 43.5 106c0 50.667 -14.667 86.5 -44 107.5s-80.333 31.5 -153 31.5zM1004 1174c117.333 0 204.999 -19.833 262.999 -59.5s87 -99.834 87 -180.501c0 -57.333 -17.5 -104.666 -52.5 -141.999s-84.5 -61.666 -148.5 -72.999
c16 -5.33301 35.167 -20.833 57.5 -46.5s48.833 -62.834 79.5 -111.501l137 -223h-172l-129 209c-39.333 64 -71.166 104.5 -95.499 121.5s-54.5 25.5 -90.5 25.5h-66v-356h-155v836h285z" />
    <glyph glyph-name="macron" unicode="&#xaf;" 
d="M213 1526h598v-148h-598v148z" />
    <glyph glyph-name="degree" unicode="&#xb0;" 
d="M512 1391c-53.333 0 -98.333 -18.5 -135 -55.5s-55 -82.167 -55 -135.5c0 -52.667 18.333 -97.167 55 -133.5s81.667 -54.5 135 -54.5s98.333 18.167 135 54.5s55 80.833 55 133.5s-18.5 97.667 -55.5 135s-81.833 56 -134.5 56zM512 1520
c42.667 0 83.667 -8.16699 123 -24.5s73.333 -39.833 102 -70.5c30.667 -30 53.667 -64 69 -102s23 -79 23 -123c0 -88 -30.833 -162.5 -92.5 -223.5s-137.167 -91.5 -226.5 -91.5c-90 0 -165 30 -225 90s-90 135 -90 225c0 89.333 30.667 165 92 227s136.333 93 225 93z
" />
    <glyph glyph-name="plusminus" unicode="&#xb1;" horiz-adv-x="1716" 
d="M942 1284v-387h557v-170h-557v-387h-168v387h-557v170h557v387h168zM217 170h1282v-170h-1282v170z" />
    <glyph glyph-name="twosuperior" unicode="&#xb2;" horiz-adv-x="821" 
d="M268 782h424.003v-114h-598v110l97 87c229.333 203.333 344 336.333 344 399c0 44 -17.333 79.5 -52 106.5s-80.334 40.5 -137.001 40.5c-34.667 0 -72.334 -5.83301 -113.001 -17.5s-85 -29.167 -133 -52.5v123c51.333 18.667 99.166 32.667 143.499 42
s85.5 14 123.5 14c96.667 0 174 -22 232 -66s87 -102 87 -174c0 -92.667 -110.333 -233.667 -331 -423z" />
    <glyph glyph-name="threesuperior" unicode="&#xb3;" horiz-adv-x="821" 
d="M524 1120c61.333 -12 108.829 -36.165 142.496 -72.498s50.5 -81.833 50.5 -136.5c0 -82.667 -31.667 -146.334 -95 -191.001s-154 -67 -272 -67c-38 0 -77.833 3.5 -119.5 10.5s-85.834 17.167 -132.501 30.5v121c34.667 -18 71.834 -31.333 111.501 -40
s81.834 -13 126.501 -13c72.667 0 129 13.167 169 39.5s60 62.833 60 109.5c0 49.333 -18.5 86.666 -55.5 111.999s-91.5 38 -163.5 38h-86v108h94c62.667 0 110.167 10.5 142.5 31.5s48.5 51.5 48.5 91.5c0 38.667 -16.667 68.167 -50 88.5s-81.666 30.5 -144.999 30.5
c-26.667 0 -57 -3 -91 -9s-78 -16.667 -132 -32v115c48.667 11.333 94.334 20 137.001 26s82.334 9 119.001 9c96 0 172.167 -19.667 228.5 -59s84.5 -92 84.5 -158c0 -46 -15 -85 -45 -117s-72.333 -54 -127 -66z" />
    <glyph glyph-name="acute" unicode="&#xb4;" 
d="M651 1638h199l-326 -376h-153z" />
    <glyph glyph-name="mu" unicode="&#xb5;" horiz-adv-x="1303" 
d="M174 -426l-0.00683594 1546h184v-696c0 -96.667 23 -169.667 69 -219s114 -74 204 -74c98.667 0 172.834 28 222.501 84s74.5 140 74.5 252v653h184v-862c0 -40 5.83301 -69.5 17.5 -88.5s29.834 -28.5 54.501 -28.5c6 0 14.333 1.83301 25 5.5s25.334 9.5 44.001 17.5
v-148c-27.333 -15.333 -53.166 -26.666 -77.499 -33.999s-48.166 -11 -71.499 -11c-46 0 -82.667 13 -110 39s-46 65.667 -56 119c-33.333 -52.667 -74.166 -92.167 -122.499 -118.5s-105.166 -39.5 -170.499 -39.5c-68 0 -125.833 13 -173.5 39s-85.5 65 -113.5 117v-553
h-184z" />
    <glyph glyph-name="paragraph" unicode="&#xb6;" horiz-adv-x="1303" 
d="M633 1493l447.999 -0.000976562v-1690h-141v1567h-190v-1567h-142v846c-143.333 11.333 -254.166 53.833 -332.499 127.5s-117.5 171.834 -117.5 294.501c0 126.667 43.333 228.667 130 306s201.667 116 345 116z" />
    <glyph glyph-name="glyph195" unicode="&#xb7;" horiz-adv-x="651" 
d="M219 838h211v-254h-211v254z" />
    <glyph glyph-name="cedilla" unicode="&#xb8;" 
d="M596 0c36.667 -41.333 63.999 -79.501 81.999 -114.501s27 -68.5 27 -100.5c0 -59.333 -20 -104.166 -60 -134.499s-99.333 -45.5 -178 -45.5c-30.667 0 -60.5 2 -89.5 6s-57.833 10 -86.5 18v131c22.667 -11.333 46.334 -19.5 71.001 -24.5s52.667 -7.5 84 -7.5
c39.333 0 69 8 89 24s30 39.333 30 70c0 20 -7.16699 44.5 -21.5 73.5s-36.5 63.833 -66.5 104.5h119z" />
    <glyph glyph-name="onesuperior" unicode="&#xb9;" horiz-adv-x="821" 
d="M156 778h204v611l-223 -41v116l230 39h137v-725h205v-110h-553v110z" />
    <glyph glyph-name="ordmasculine" unicode="&#xba;" horiz-adv-x="965" 
d="M139 592h688v-123h-688v123zM483 1520c119.333 0 213.333 -36.833 282 -110.5s103 -174.167 103 -301.5s-34.333 -227.5 -103 -300.5s-162.667 -109.5 -282 -109.5s-213.666 36.667 -282.999 110s-104 173.333 -104 300c0 127.333 34.667 227.833 104 301.5
s163.666 110.5 282.999 110.5zM483 1405c-70 0 -125.999 -26.8311 -167.999 -80.498s-63 -125.834 -63 -216.501c0 -88.667 21.167 -159.667 63.5 -213s98.166 -80 167.499 -80c70 0 125.833 26.667 167.5 80s62.5 124.333 62.5 213c0 91.333 -20.667 163.666 -62 216.999
s-97.333 80 -168 80z" />
    <glyph glyph-name="guillemotright" unicode="&#xbb;" horiz-adv-x="1253" 
d="M193 1059l469 -418v-82l-469 -418v191l301 268l-301 268v191zM627 1059l469 -418v-82l-469 -418v191l301 268l-301 268v191z" />
    <glyph glyph-name="onequarter" unicode="&#xbc;" horiz-adv-x="1985" 
d="M156 778h204v611l-223 -41v116l230 39h137v-725h205v-110h-553v110zM1378 1520h160l-932 -1549h-160zM1640 714l-309 -419h309v419zM1618 835h166v-540h135v-109h-135v-186h-144v186h-414v121z" />
    <glyph glyph-name="onehalf" unicode="&#xbd;" horiz-adv-x="1985" 
d="M156 778h204v611l-223 -41v116l230 39h137v-725h205v-110h-553v110zM1378 1520h160l-932 -1549h-160zM1431 114h424.003v-114h-598v110l97 87c229.333 203.333 344 336.333 344 399c0 44 -17.333 79.5 -52 106.5s-80.334 40.5 -137.001 40.5
c-34.667 0 -72.334 -5.83301 -113.001 -17.5s-85 -29.167 -133 -52.5v123c51.333 18.667 99.166 32.667 143.499 42s85.5 14 123.5 14c96.667 0 174 -22 232 -66s87 -102 87 -174c0 -92.667 -110.333 -233.667 -331 -423z" />
    <glyph glyph-name="threequarters" unicode="&#xbe;" horiz-adv-x="1985" 
d="M524 1120c61.333 -12 108.829 -36.165 142.496 -72.498s50.5 -81.833 50.5 -136.5c0 -82.667 -31.667 -146.334 -95 -191.001s-154 -67 -272 -67c-38 0 -77.833 3.5 -119.5 10.5s-85.834 17.167 -132.501 30.5v121c34.667 -18 71.834 -31.333 111.501 -40
s81.834 -13 126.501 -13c72.667 0 129 13.167 169 39.5s60 62.833 60 109.5c0 49.333 -18.5 86.666 -55.5 111.999s-91.5 38 -163.5 38h-86v108h94c62.667 0 110.167 10.5 142.5 31.5s48.5 51.5 48.5 91.5c0 38.667 -16.667 68.167 -50 88.5s-81.666 30.5 -144.999 30.5
c-26.667 0 -57 -3 -91 -9s-78 -16.667 -132 -32v115c48.667 11.333 94.334 20 137.001 26s82.334 9 119.001 9c96 0 172.167 -19.667 228.5 -59s84.5 -92 84.5 -158c0 -46 -15 -85 -45 -117s-72.333 -54 -127 -66zM1378 1520h160l-932 -1549h-160zM1640 714.002l-309 -419
h309v419zM1618 835.002h166v-540h135v-109h-135v-186h-144v186h-414v121z" />
    <glyph glyph-name="questiondown" unicode="&#xbf;" horiz-adv-x="1087" 
d="M500 1092l190.001 -0.00390625v-156c0 -67.333 -9.16699 -122.666 -27.5 -165.999s-57.5 -94 -117.5 -152l-90 -88c-38.667 -35.333 -66.5 -68.666 -83.5 -99.999s-25.5 -63.333 -25.5 -96c0 -59.333 21.833 -107.333 65.5 -144s101.834 -55 174.501 -55
c52 0 108 11.667 168 35s122 57.333 186 102v-188c-62.667 -38 -126 -66.333 -190 -85s-130.333 -28 -199 -28c-122.667 0 -221.334 32.333 -296.001 97s-112 150 -112 256c0 50.667 12.167 98.834 36.5 144.501s66.166 97.167 125.499 154.5l88 86
c32 31.333 54.333 55.833 67 73.5s21.667 34.834 27 51.501c4.66699 14 8 31 10 51s3 48 3 84v123zM696.001 1239h-202v254h202v-254z" />
    <glyph glyph-name="Agrave" unicode="&#xc0;" horiz-adv-x="1401" 
d="M700 1294l-274 -743h549zM586 1493h229l569 -1493h-210l-136 383h-673l-136 -383h-213zM643 1899l196 -264h-153l-230 264h187z" />
    <glyph glyph-name="Aacute" unicode="&#xc1;" horiz-adv-x="1401" 
d="M700 1294l-274 -743h549zM586 1493h229l569 -1493h-210l-136 383h-673l-136 -383h-213zM755 1899h185l-228 -264h-153z" />
    <glyph glyph-name="Acircumflex" unicode="&#xc2;" horiz-adv-x="1401" 
d="M700 1294l-274 -743h549zM586 1493h229l569 -1493h-210l-136 383h-673l-136 -383h-213zM606 1901h188l211 -266h-139l-166 178l-166 -178h-139z" />
    <glyph glyph-name="Atilde" unicode="&#xc3;" horiz-adv-x="1401" 
d="M700 1294l-274 -743h549zM586 1493h229l569 -1493h-210l-136 383h-673l-136 -383h-213zM696 1710l-56.9961 33.002c-16.667 9.33301 -30.167 15.833 -40.5 19.5s-19.5 5.5 -27.5 5.5c-24 0 -42.667 -8.33301 -56 -25s-20 -40 -20 -70v-6h-125
c0 67.333 17.167 120.666 51.5 159.999s80.166 59 137.499 59c24 0 46.167 -2.66699 66.5 -8s46.5 -17 78.5 -35l57 -30c15.333 -8.66699 28.666 -15 39.999 -19s22 -6 32 -6c21.333 0 38.666 8.5 51.999 25.5s20 39.167 20 66.5v6h125
c-1.33301 -66.667 -19.166 -119.834 -53.499 -159.501s-79.5 -59.5 -135.5 -59.5c-22.667 0 -43.834 2.66699 -63.501 8s-46.834 17 -81.501 35z" />
    <glyph glyph-name="Adieresis" unicode="&#xc4;" horiz-adv-x="1401" 
d="M700 1294l-274 -743h549zM586 1493h229l569 -1493h-210l-136 383h-673l-136 -383h-213zM794 1870h203v-203h-203v203zM403 1870h203v-203h-203v203z" />
    <glyph glyph-name="Aring" unicode="&#xc5;" horiz-adv-x="1401" 
d="M852 1626c0 42 -14.833 77.833 -44.5 107.5s-65.5 44.5 -107.5 44.5c-42.667 0 -78.5 -14.5 -107.5 -43.5s-43.5 -65.167 -43.5 -108.5c0 -42 14.667 -77.667 44 -107s65 -44 107 -44s77.833 14.667 107.5 44s44.5 65 44.5 107zM700 1294l-272 -743h545zM549 1397
c-40.667 27.333 -71.333 60.166 -92 98.499s-31 81.833 -31 130.5c0 76.667 26.5 141.667 79.5 195s117.833 80 194.5 80c76 0 140.833 -26.833 194.5 -80.5s80.5 -118.5 80.5 -194.5c0 -46.667 -10.5 -89.667 -31.5 -129s-51.5 -72.666 -91.5 -99.999l532 -1397h-210
l-136 383h-673l-136 -383h-213z" />
    <glyph glyph-name="AE" unicode="&#xc6;" horiz-adv-x="1995" 
d="M1845 1493v-170h-741v-442h711v-170h-711v-541h760v-170h-963v383h-528l-160 -383h-205l625 1493h1212zM772 1335l-330 -784h459v784h-129z" />
    <glyph glyph-name="Ccedilla" unicode="&#xc7;" horiz-adv-x="1430" 
d="M1319 1378v-212.998c-68 63.333 -140.5 110.666 -217.5 141.999s-158.833 47 -245.5 47c-170.667 0 -301.334 -52.167 -392.001 -156.5s-136 -255.166 -136 -452.499c0 -196.667 45.333 -347.167 136 -451.5s221.334 -156.5 392.001 -156.5
c86.667 0 168.5 15.667 245.5 47s149.5 78.666 217.5 141.999v-211c-70.667 -48 -145.5 -84 -224.5 -108s-162.5 -36 -250.5 -36c-226 0 -404 69.167 -534 207.5s-195 327.166 -195 566.499c0 240 65 429.167 195 567.5s308 207.5 534 207.5
c89.333 0 173.5 -11.833 252.5 -35.5s153.167 -59.167 222.5 -106.5zM897 0.00195312c36.667 -41.333 63.999 -79.501 81.999 -114.501s27 -68.5 27 -100.5c0 -59.333 -20 -104.166 -60 -134.499s-99.333 -45.5 -178 -45.5c-30.667 0 -60.5 2 -89.5 6s-57.833 10 -86.5 18
v131c22.667 -11.333 46.334 -19.5 71.001 -24.5s52.667 -7.5 84 -7.5c39.333 0 69 8 89 24s30 39.333 30 70c0 20 -7.16699 44.5 -21.5 73.5s-36.5 63.833 -66.5 104.5h119z" />
    <glyph glyph-name="Egrave" unicode="&#xc8;" horiz-adv-x="1294" 
d="M201 1493h944v-170h-742v-442h711v-170h-711v-541h760v-170h-962v1493zM613 1899l196 -264h-153l-230 264h187z" />
    <glyph glyph-name="Eacute" unicode="&#xc9;" horiz-adv-x="1294" 
d="M201 1493h944v-170h-742v-442h711v-170h-711v-541h760v-170h-962v1493zM725 1899h185l-228 -264h-153z" />
    <glyph glyph-name="Ecircumflex" unicode="&#xca;" horiz-adv-x="1294" 
d="M201 1493h944v-170h-742v-442h711v-170h-711v-541h760v-170h-962v1493zM576 1901h188l211 -266h-139l-166 178l-166 -178h-139z" />
    <glyph glyph-name="Edieresis" unicode="&#xcb;" horiz-adv-x="1294" 
d="M201 1493h944v-170h-742v-442h711v-170h-711v-541h760v-170h-962v1493zM764 1870h203v-203h-203v203zM373 1870h203v-203h-203v203z" />
    <glyph glyph-name="Igrave" unicode="&#xcc;" horiz-adv-x="604" 
d="M201 1493h202v-1493h-202v1493zM246 1899l196 -264h-153l-230 264h187z" />
    <glyph glyph-name="Iacute" unicode="&#xcd;" horiz-adv-x="604" 
d="M201 1493h202v-1493h-202v1493zM358 1899h185l-228 -264h-153z" />
    <glyph glyph-name="Icircumflex" unicode="&#xce;" horiz-adv-x="604" 
d="M201 1493h202v-1493h-202v1493zM209 1901h188l211 -266h-139l-166 178l-166 -178h-139z" />
    <glyph glyph-name="Idieresis" unicode="&#xcf;" horiz-adv-x="604" 
d="M201 1493h202v-1493h-202v1493zM397 1870h203v-203h-203v203zM6 1870h203v-203h-203v203z" />
    <glyph glyph-name="Eth" unicode="&#xd0;" horiz-adv-x="1587" 
d="M211 1493h416c288.667 0 500.667 -60.167 636 -180.5s203 -308.5 203 -564.5c0 -257.333 -67.833 -446.333 -203.5 -567s-347.5 -181 -635.5 -181h-416v700h-201v144h201v649zM414 1327v-482.999h336v-144h-336v-534h243c206 0 356.833 46.667 452.5 140
s143.5 240.666 143.5 441.999c0 200 -47.833 346.5 -143.5 439.5s-246.5 139.5 -452.5 139.5h-243z" />
    <glyph glyph-name="Ntilde" unicode="&#xd1;" horiz-adv-x="1532" 
d="M201 1493h272l662 -1249v1249h196v-1493h-272l-662 1249v-1249h-196v1493zM762 1710l-56.9961 33.002c-16.667 9.33301 -30.167 15.833 -40.5 19.5s-19.5 5.5 -27.5 5.5c-24 0 -42.667 -8.33301 -56 -25s-20 -40 -20 -70v-6h-125c0 67.333 17.167 120.666 51.5 159.999
s80.166 59 137.499 59c24 0 46.167 -2.66699 66.5 -8s46.5 -17 78.5 -35l57 -30c15.333 -8.66699 28.666 -15 39.999 -19s22 -6 32 -6c21.333 0 38.666 8.5 51.999 25.5s20 39.167 20 66.5v6h125c-1.33301 -66.667 -19.166 -119.834 -53.499 -159.501
s-79.5 -59.5 -135.5 -59.5c-22.667 0 -43.834 2.66699 -63.501 8s-46.834 17 -81.501 35z" />
    <glyph glyph-name="Ograve" unicode="&#xd2;" horiz-adv-x="1612" 
d="M807 1356c-146.667 0 -263.167 -54.667 -349.5 -164s-129.5 -258.333 -129.5 -447c0 -188 43.167 -336.667 129.5 -446s202.833 -164 349.5 -164s262.834 54.667 348.501 164s128.5 258 128.5 446c0 188.667 -42.833 337.667 -128.5 447s-201.834 164 -348.501 164z
M807 1520c209.333 0 376.666 -70.168 501.999 -210.501s188 -328.5 188 -564.5c0 -235.333 -62.667 -423.166 -188 -563.499s-292.666 -210.5 -501.999 -210.5c-210 0 -377.833 70 -503.5 210s-188.5 328 -188.5 564s62.833 424.167 188.5 564.5s293.5 210.5 503.5 210.5z
M750 1899l196 -264h-153l-230 264h187z" />
    <glyph glyph-name="Oacute" unicode="&#xd3;" horiz-adv-x="1612" 
d="M807 1356c-146.667 0 -263.167 -54.667 -349.5 -164s-129.5 -258.333 -129.5 -447c0 -188 43.167 -336.667 129.5 -446s202.833 -164 349.5 -164s262.834 54.667 348.501 164s128.5 258 128.5 446c0 188.667 -42.833 337.667 -128.5 447s-201.834 164 -348.501 164z
M807 1520c209.333 0 376.666 -70.168 501.999 -210.501s188 -328.5 188 -564.5c0 -235.333 -62.667 -423.166 -188 -563.499s-292.666 -210.5 -501.999 -210.5c-210 0 -377.833 70 -503.5 210s-188.5 328 -188.5 564s62.833 424.167 188.5 564.5s293.5 210.5 503.5 210.5z
M862 1899h185l-228 -264h-153z" />
    <glyph glyph-name="Ocircumflex" unicode="&#xd4;" horiz-adv-x="1612" 
d="M807 1356c-146.667 0 -263.167 -54.667 -349.5 -164s-129.5 -258.333 -129.5 -447c0 -188 43.167 -336.667 129.5 -446s202.833 -164 349.5 -164s262.834 54.667 348.501 164s128.5 258 128.5 446c0 188.667 -42.833 337.667 -128.5 447s-201.834 164 -348.501 164z
M807 1520c209.333 0 376.666 -70.168 501.999 -210.501s188 -328.5 188 -564.5c0 -235.333 -62.667 -423.166 -188 -563.499s-292.666 -210.5 -501.999 -210.5c-210 0 -377.833 70 -503.5 210s-188.5 328 -188.5 564s62.833 424.167 188.5 564.5s293.5 210.5 503.5 210.5z
M713 1901h188l211 -266h-139l-166 178l-166 -178h-139z" />
    <glyph glyph-name="Otilde" unicode="&#xd5;" horiz-adv-x="1612" 
d="M807 1356c-146.667 0 -263.167 -54.667 -349.5 -164s-129.5 -258.333 -129.5 -447c0 -188 43.167 -336.667 129.5 -446s202.833 -164 349.5 -164s262.834 54.667 348.501 164s128.5 258 128.5 446c0 188.667 -42.833 337.667 -128.5 447s-201.834 164 -348.501 164z
M807 1520c209.333 0 376.666 -70.168 501.999 -210.501s188 -328.5 188 -564.5c0 -235.333 -62.667 -423.166 -188 -563.499s-292.666 -210.5 -501.999 -210.5c-210 0 -377.833 70 -503.5 210s-188.5 328 -188.5 564s62.833 424.167 188.5 564.5s293.5 210.5 503.5 210.5z
M803 1710l-56.9961 33.002c-16.667 9.33301 -30.167 15.833 -40.5 19.5s-19.5 5.5 -27.5 5.5c-24 0 -42.667 -8.33301 -56 -25s-20 -40 -20 -70v-6h-125c0 67.333 17.167 120.666 51.5 159.999s80.166 59 137.499 59c24 0 46.167 -2.66699 66.5 -8s46.5 -17 78.5 -35l57 -30
c15.333 -8.66699 28.666 -15 39.999 -19s22 -6 32 -6c21.333 0 38.666 8.5 51.999 25.5s20 39.167 20 66.5v6h125c-1.33301 -66.667 -19.166 -119.834 -53.499 -159.501s-79.5 -59.5 -135.5 -59.5c-22.667 0 -43.834 2.66699 -63.501 8s-46.834 17 -81.501 35z" />
    <glyph glyph-name="Odieresis" unicode="&#xd6;" horiz-adv-x="1612" 
d="M807 1356c-146.667 0 -263.167 -54.667 -349.5 -164s-129.5 -258.333 -129.5 -447c0 -188 43.167 -336.667 129.5 -446s202.833 -164 349.5 -164s262.834 54.667 348.501 164s128.5 258 128.5 446c0 188.667 -42.833 337.667 -128.5 447s-201.834 164 -348.501 164z
M807 1520c209.333 0 376.666 -70.168 501.999 -210.501s188 -328.5 188 -564.5c0 -235.333 -62.667 -423.166 -188 -563.499s-292.666 -210.5 -501.999 -210.5c-210 0 -377.833 70 -503.5 210s-188.5 328 -188.5 564s62.833 424.167 188.5 564.5s293.5 210.5 503.5 210.5z
M901 1870h203v-203h-203v203zM510 1870h203v-203h-203v203z" />
    <glyph glyph-name="multiply" unicode="&#xd7;" horiz-adv-x="1716" 
d="M1436 1100l-457 -459l457 -457l-119 -121l-459 459l-459 -459l-118 121l456 457l-456 459l118 121l459 -459l459 459z" />
    <glyph glyph-name="Oslash" unicode="&#xd8;" horiz-adv-x="1612" 
d="M1206 1112l-717.001 -845.999c41.333 -42.667 88.833 -75.167 142.5 -97.5s112.167 -33.5 175.5 -33.5c146.667 0 262.834 54.667 348.501 164s128.5 258 128.5 446c0 74.667 -6.5 142.667 -19.5 204s-32.5 115.666 -58.5 162.999zM1124 1225
c-40.667 42.667 -87.833 75.168 -141.5 97.501s-112.167 33.5 -175.5 33.5c-146.667 0 -263.167 -54.667 -349.5 -164s-129.5 -258.333 -129.5 -447c0 -74.667 6.5 -143.334 19.5 -206.001s32.5 -116.667 58.5 -162zM272 219.002c-52 68 -91.168 146 -117.501 234
s-39.5 185.333 -39.5 292c0 236 62.833 424.167 188.5 564.5s293.5 210.5 503.5 210.5c86.667 0 166.834 -12.833 240.501 -38.5s139.5 -63.5 197.5 -113.5l162 191l102 -89l-170 -198c52 -68.667 91.333 -147.334 118 -236.001s40 -185.667 40 -291
c0 -235.333 -62.667 -423.166 -188 -563.499s-292.666 -210.5 -501.999 -210.5c-85.333 0 -164.833 12.5 -238.5 37.5s-140.834 62.5 -201.501 112.5l-162 -191l-103 88z" />
    <glyph glyph-name="Ugrave" unicode="&#xd9;" horiz-adv-x="1499" 
d="M178 1493h203v-907c0 -160 29 -275.167 87 -345.5s152 -105.5 282 -105.5c129.333 0 223 35.167 281 105.5s87 185.5 87 345.5v907h203v-932c0 -194.667 -48.167 -341.667 -144.5 -441s-238.5 -149 -426.5 -149c-188.667 0 -331.167 49.667 -427.5 149
s-144.5 246.333 -144.5 441v932zM693 1899l196 -264h-153l-230 264h187z" />
    <glyph glyph-name="Uacute" unicode="&#xda;" horiz-adv-x="1499" 
d="M178 1493h203v-907c0 -160 29 -275.167 87 -345.5s152 -105.5 282 -105.5c129.333 0 223 35.167 281 105.5s87 185.5 87 345.5v907h203v-932c0 -194.667 -48.167 -341.667 -144.5 -441s-238.5 -149 -426.5 -149c-188.667 0 -331.167 49.667 -427.5 149
s-144.5 246.333 -144.5 441v932zM805 1899h185l-228 -264h-153z" />
    <glyph glyph-name="Ucircumflex" unicode="&#xdb;" horiz-adv-x="1499" 
d="M178 1493h203v-907c0 -160 29 -275.167 87 -345.5s152 -105.5 282 -105.5c129.333 0 223 35.167 281 105.5s87 185.5 87 345.5v907h203v-932c0 -194.667 -48.167 -341.667 -144.5 -441s-238.5 -149 -426.5 -149c-188.667 0 -331.167 49.667 -427.5 149
s-144.5 246.333 -144.5 441v932zM656 1901h188l211 -266h-139l-166 178l-166 -178h-139z" />
    <glyph glyph-name="Udieresis" unicode="&#xdc;" horiz-adv-x="1499" 
d="M178 1493h203v-907c0 -160 29 -275.167 87 -345.5s152 -105.5 282 -105.5c129.333 0 223 35.167 281 105.5s87 185.5 87 345.5v907h203v-932c0 -194.667 -48.167 -341.667 -144.5 -441s-238.5 -149 -426.5 -149c-188.667 0 -331.167 49.667 -427.5 149
s-144.5 246.333 -144.5 441v932zM844 1870h203v-203h-203v203zM453 1870h203v-203h-203v203z" />
    <glyph glyph-name="Yacute" unicode="&#xdd;" horiz-adv-x="1251" 
d="M-4 1493h217l414 -614l411 614h217l-528 -782v-711h-203v711zM682 1899h185l-228 -264h-153z" />
    <glyph glyph-name="Thorn" unicode="&#xde;" horiz-adv-x="1239" 
d="M201 1493h202v-264h254c167.333 0 293.833 -37.5 379.5 -112.5s128.5 -185.833 128.5 -332.5s-42.833 -257.667 -128.5 -333s-212.167 -113 -379.5 -113h-254v-338h-202v1493zM403 1063v-558.999h254c94 0 166.667 24.333 218 73s77 117.667 77 207
s-25.5 158.166 -76.5 206.499s-123.833 72.5 -218.5 72.5h-254z" />
    <glyph glyph-name="germandbls" unicode="&#xdf;" horiz-adv-x="1290" 
d="M186 1137c0 133.333 39.833 236.497 119.5 309.497s192.167 109.5 337.5 109.5c138.667 0 244.5 -38.667 317.5 -116s110.5 -190.666 112.5 -339.999c-100.667 -5.33301 -179 -27.166 -235 -65.499s-84 -89.5 -84 -153.5c0 -31.333 9.66699 -60.5 29 -87.5
s50.666 -54.5 93.999 -82.5l57 -37c110.667 -70.667 182 -129.667 214 -177s48 -104.333 48 -171c0 -114.667 -37.5 -202.5 -112.5 -263.5s-182.833 -91.5 -323.5 -91.5c-42.667 0 -86.667 4.16699 -132 12.5s-92.333 20.5 -141 36.5v164
c53.333 -20 103.333 -34.833 150 -44.5s91.667 -14.5 135 -14.5c77.333 0 136 15.833 176 47.5s60 77.834 60 138.501c0 42 -9.83301 77 -29.5 105s-63.167 62.667 -130.5 104l-92 55c-64 39.333 -110.5 81.5 -139.5 126.5s-43.5 97.833 -43.5 158.5
c0 84.667 27.833 155.667 83.5 213s133.834 95.666 234.501 114.999c-5.33301 68.667 -29.833 121.667 -73.5 159s-103.167 56 -178.5 56c-86.667 0 -152.667 -23.167 -198 -69.5s-68 -113.166 -68 -200.499v-1133h-187v1137z" />
    <glyph glyph-name="agrave" unicode="&#xe0;" horiz-adv-x="1255" 
d="M763 563c-148.667 0 -251.667 -17.001 -309 -51.001s-86 -92 -86 -174c0 -65.333 21.5 -117.166 64.5 -155.499s101.5 -57.5 175.5 -57.5c102 0 183.833 36.167 245.5 108.5s92.5 168.5 92.5 288.5v41h-183zM1130 638.999l0.00488281 -639h-184v170
c-42 -68 -94.333 -118.167 -157 -150.5s-139.334 -48.5 -230.001 -48.5c-114.667 0 -205.834 32.167 -273.501 96.5s-101.5 150.5 -101.5 258.5c0 126 42.167 221 126.5 285s210.166 96 377.499 96h258v18c0 84.667 -27.833 150.167 -83.5 196.5
s-133.834 69.5 -234.501 69.5c-64 0 -126.333 -7.66699 -187 -23s-119 -38.333 -175 -69v170c67.333 26 132.666 45.5 195.999 58.5s125 19.5 185 19.5c162 0 283 -42 363 -126s120 -211.333 120 -382zM220.005 1493h961.999v-2c-56.667 -87.333 -88.667 -134 -96 -140h-257
c35.333 -41.333 59.333 -91.666 72 -150.999h274c3.33301 -0.666992 5 -2 5 -4c-61.333 -92 -92.666 -138 -93.999 -138h-178c-4 -47.333 -26.667 -104.333 -68 -171c-54.667 -67.333 -107 -111 -157 -131c-93.333 -44.667 -182.666 -67 -267.999 -67v-2
c0 -6.66699 21 -34.334 63 -83.001l475 -573v-27c0 -2.66699 -1.66699 -4 -5 -4h-209c-376 438 -564 658 -564 660v133l2 5c33.333 -4.66699 72.333 -7 117 -7c210.667 0 341.667 68.333 393 205c8 20 12 40.667 12 62h-572c-2.66699 0 -4 1.33301 -4 4
c63.333 92 95.666 138 96.999 138h454v2c-26 52.667 -76.333 93.667 -151 123c-53.333 17.333 -101.333 26 -144 26h-254v5c61.333 91.333 93 137 95 137z" />
    <glyph glyph-name="aacute" unicode="&#xe1;" horiz-adv-x="1255" 
d="M702 563c-148.667 0 -251.667 -17.001 -309 -51.001s-86 -92 -86 -174c0 -65.333 21.5 -117.166 64.5 -155.499s101.5 -57.5 175.5 -57.5c102 0 183.833 36.167 245.5 108.5s92.5 168.5 92.5 288.5v41h-183zM1069 638.999l0.00488281 -639h-184v170
c-42 -68 -94.333 -118.167 -157 -150.5s-139.334 -48.5 -230.001 -48.5c-114.667 0 -205.834 32.167 -273.501 96.5s-101.5 150.5 -101.5 258.5c0 126 42.167 221 126.5 285s210.166 96 377.499 96h258v18c0 84.667 -27.833 150.167 -83.5 196.5
s-133.834 69.5 -234.501 69.5c-64 0 -126.333 -7.66699 -187 -23s-119 -38.333 -175 -69v170c67.333 26 132.666 45.5 195.999 58.5s125 19.5 185 19.5c162 0 283 -42 363 -126s120 -211.333 120 -382zM733.005 1638h199l-326 -376h-153z" />
    <glyph glyph-name="acircumflex" unicode="&#xe2;" horiz-adv-x="1255" 
d="M702 563c-148.667 0 -251.667 -17.001 -309 -51.001s-86 -92 -86 -174c0 -65.333 21.5 -117.166 64.5 -155.499s101.5 -57.5 175.5 -57.5c102 0 183.833 36.167 245.5 108.5s92.5 168.5 92.5 288.5v41h-183zM1069 638.999l0.00488281 -639h-184v170
c-42 -68 -94.333 -118.167 -157 -150.5s-139.334 -48.5 -230.001 -48.5c-114.667 0 -205.834 32.167 -273.501 96.5s-101.5 150.5 -101.5 258.5c0 126 42.167 221 126.5 285s210.166 96 377.499 96h258v18c0 84.667 -27.833 150.167 -83.5 196.5
s-133.834 69.5 -234.501 69.5c-64 0 -126.333 -7.66699 -187 -23s-119 -38.333 -175 -69v170c67.333 26 132.666 45.5 195.999 58.5s125 19.5 185 19.5c162 0 283 -42 363 -126s120 -211.333 120 -382zM520.005 1638h148l245 -376h-139l-180 245l-180 -245h-139z" />
    <glyph glyph-name="atilde" unicode="&#xe3;" horiz-adv-x="1255" 
d="M702 563c-148.667 0 -251.667 -17.001 -309 -51.001s-86 -92 -86 -174c0 -65.333 21.5 -117.166 64.5 -155.499s101.5 -57.5 175.5 -57.5c102 0 183.833 36.167 245.5 108.5s92.5 168.5 92.5 288.5v41h-183zM1069 638.999l0.00488281 -639h-184v170
c-42 -68 -94.333 -118.167 -157 -150.5s-139.334 -48.5 -230.001 -48.5c-114.667 0 -205.834 32.167 -273.501 96.5s-101.5 150.5 -101.5 258.5c0 126 42.167 221 126.5 285s210.166 96 377.499 96h258v18c0 84.667 -27.833 150.167 -83.5 196.5
s-133.834 69.5 -234.501 69.5c-64 0 -126.333 -7.66699 -187 -23s-119 -38.333 -175 -69v170c67.333 26 132.666 45.5 195.999 58.5s125 19.5 185 19.5c162 0 283 -42 363 -126s120 -211.333 120 -382zM590.005 1370l-57 55c-14.667 13.333 -27.5 23.166 -38.5 29.499
s-20.833 9.5 -29.5 9.5c-25.333 0 -44 -12.167 -56 -36.5s-18.667 -63.833 -20 -118.5h-125c1.33301 90 19 159.5 53 208.5s81.333 73.5 142 73.5c25.333 0 48.666 -4.66699 69.999 -14s44.333 -25 69 -47l57 -55c14.667 -13.333 27.5 -23.166 38.5 -29.499
s20.833 -9.5 29.5 -9.5c25.333 0 44 12.167 56 36.5s18.667 63.833 20 118.5h125c-1.33301 -90 -19 -159.5 -53 -208.5s-81.333 -73.5 -142 -73.5c-25.333 0 -48.666 4.66699 -69.999 14s-44.333 25 -69 47z" />
    <glyph glyph-name="adieresis" unicode="&#xe4;" horiz-adv-x="1255" 
d="M702 563c-148.667 0 -251.667 -17.001 -309 -51.001s-86 -92 -86 -174c0 -65.333 21.5 -117.166 64.5 -155.499s101.5 -57.5 175.5 -57.5c102 0 183.833 36.167 245.5 108.5s92.5 168.5 92.5 288.5v41h-183zM1069 638.999l0.00488281 -639h-184v170
c-42 -68 -94.333 -118.167 -157 -150.5s-139.334 -48.5 -230.001 -48.5c-114.667 0 -205.834 32.167 -273.501 96.5s-101.5 150.5 -101.5 258.5c0 126 42.167 221 126.5 285s210.166 96 377.499 96h258v18c0 84.667 -27.833 150.167 -83.5 196.5
s-133.834 69.5 -234.501 69.5c-64 0 -126.333 -7.66699 -187 -23s-119 -38.333 -175 -69v170c67.333 26 132.666 45.5 195.999 58.5s125 19.5 185 19.5c162 0 283 -42 363 -126s120 -211.333 120 -382zM688.005 1552h203v-202h-203v202zM297.005 1552h203v-202h-203v202z
" />
    <glyph glyph-name="aring" unicode="&#xe5;" horiz-adv-x="1255" 
d="M702 563c-148.667 0 -251.667 -17.001 -309 -51.001s-86 -92 -86 -174c0 -65.333 21.5 -117.166 64.5 -155.499s101.5 -57.5 175.5 -57.5c102 0 183.833 36.167 245.5 108.5s92.5 168.5 92.5 288.5v41h-183zM1069 638.999l0.00488281 -639h-184v170
c-42 -68 -94.333 -118.167 -157 -150.5s-139.334 -48.5 -230.001 -48.5c-114.667 0 -205.834 32.167 -273.501 96.5s-101.5 150.5 -101.5 258.5c0 126 42.167 221 126.5 285s210.166 96 377.499 96h258v18c0 84.667 -27.833 150.167 -83.5 196.5
s-133.834 69.5 -234.501 69.5c-64 0 -126.333 -7.66699 -187 -23s-119 -38.333 -175 -69v170c67.333 26 132.666 45.5 195.999 58.5s125 19.5 185 19.5c162 0 283 -42 363 -126s120 -211.333 120 -382zM746.005 1524c0 42 -14.667 77.667 -44 107s-65.333 44 -108 44
c-43.333 0 -79.5 -14.5 -108.5 -43.5s-43.5 -64.833 -43.5 -107.5c0 -43.333 14.5 -79.5 43.5 -108.5s65.167 -43.5 108.5 -43.5c42.667 0 78.667 14.667 108 44s44 65.333 44 108zM868.005 1524c0 -76.667 -26.5 -141.667 -79.5 -195s-117.833 -80 -194.5 -80
s-141.5 26.667 -194.5 80s-79.5 118.333 -79.5 195s26.5 141.5 79.5 194.5s117.833 79.5 194.5 79.5s141.5 -26.5 194.5 -79.5s79.5 -117.833 79.5 -194.5z" />
    <glyph glyph-name="ae" unicode="&#xe6;" horiz-adv-x="2011" 
d="M1718 660c-0.666992 100.667 -28.5 181 -83.5 241s-128.167 90 -219.5 90c-102 0 -183.833 -29 -245.5 -87s-97.167 -139.667 -106.5 -245zM995 963c49.333 60 109.335 105.668 180.002 137.001s150 47 238 47c150.667 0 270 -48.5 358 -145.5s132 -228.833 132 -395.5
v-90h-846c8 -127.333 46 -224.333 114 -291s163 -100 285 -100c69.333 0 137.333 8.83301 204 26.5s133.334 44.167 200.001 79.5v-174c-66.667 -28 -134.667 -49.333 -204 -64s-139.333 -22 -210 -22c-111.333 0 -208.333 20.167 -291 60.5s-149.667 100.166 -201 179.499
c-48.667 -80 -109 -140 -181 -180s-155.667 -60 -251 -60c-126 0 -224 31.167 -294 93.5s-105 149.5 -105 261.5c0 126 42.167 221 126.5 285s210.166 96 377.499 96h258v18c0 84.667 -27.833 150.167 -83.5 196.5s-133.834 69.5 -234.501 69.5
c-64 0 -126.333 -7.66699 -187 -23s-119 -38.333 -175 -69v170c67.333 26 132.666 45.5 195.999 58.5s125 19.5 185 19.5c94.667 0 177.5 -16 248.5 -48s124.5 -77.333 160.5 -136zM702.002 563.001c-148.667 0 -251.667 -17.001 -309 -51.001s-86 -92 -86 -174
c0 -65.333 21.5 -117.166 64.5 -155.499s101.5 -57.5 175.5 -57.5c102 0 183.833 36.167 245.5 108.5s92.5 168.5 92.5 288.5v41h-183z" />
    <glyph glyph-name="ccedilla" unicode="&#xe7;" horiz-adv-x="1126" 
d="M999 1077v-171.999c-52 28.667 -104.167 50.167 -156.5 64.5s-105.166 21.5 -158.499 21.5c-119.333 0 -212 -37.833 -278 -113.5s-99 -181.834 -99 -318.501s33 -242.834 99 -318.501s158.667 -113.5 278 -113.5c53.333 0 106.166 7.16699 158.499 21.5
s104.5 35.833 156.5 64.5v-170c-51.333 -24 -104.5 -42 -159.5 -54s-113.5 -18 -175.5 -18c-168.667 0 -302.667 53 -402 159s-149 249 -149 429c0 182.667 50.167 326.334 150.5 431.001s237.833 157 412.5 157c56.667 0 112 -5.83301 166 -17.5s106.333 -29.167 157 -52.5
zM739 0.000976562c36.667 -41.333 63.999 -79.501 81.999 -114.501s27 -68.5 27 -100.5c0 -59.333 -20 -104.166 -60 -134.499s-99.333 -45.5 -178 -45.5c-30.667 0 -60.5 2 -89.5 6s-57.833 10 -86.5 18v131c22.667 -11.333 46.334 -19.5 71.001 -24.5s52.667 -7.5 84 -7.5
c39.333 0 69 8 89 24s30 39.333 30 70c0 20 -7.16699 44.5 -21.5 73.5s-36.5 63.833 -66.5 104.5h119z" />
    <glyph glyph-name="egrave" unicode="&#xe8;" horiz-adv-x="1260" 
d="M1151 606l-0.000976562 -90h-846c8 -126.667 46.167 -223.167 114.5 -289.5s163.5 -99.5 285.5 -99.5c70.667 0 139.167 8.66699 205.5 26s132.166 43.333 197.499 78v-174c-66 -28 -133.667 -49.333 -203 -64s-139.666 -22 -210.999 -22
c-178.667 0 -320.167 52 -424.5 156s-156.5 244.667 -156.5 422c0 183.333 49.5 328.833 148.5 436.5s232.5 161.5 400.5 161.5c150.667 0 269.834 -48.5 357.501 -145.5s131.5 -228.833 131.5 -395.5zM966.999 660c-1.33301 100.667 -29.499 181 -84.499 241
s-127.833 90 -218.5 90c-102.667 0 -184.834 -29 -246.501 -87s-97.167 -139.667 -106.5 -245zM216 1493h961.999v-2c-56.667 -87.333 -88.667 -134 -96 -140h-257c35.333 -41.333 59.333 -91.666 72 -150.999h274c3.33301 -0.666992 5 -2 5 -4
c-61.333 -92 -92.666 -138 -93.999 -138h-178c-4 -47.333 -26.667 -104.333 -68 -171c-54.667 -67.333 -107 -111 -157 -131c-93.333 -44.667 -182.666 -67 -267.999 -67v-2c0 -6.66699 21 -34.334 63 -83.001l475 -573v-27c0 -2.66699 -1.66699 -4 -5 -4h-209
c-376 438 -564 658 -564 660v133l2 5c33.333 -4.66699 72.333 -7 117 -7c210.667 0 341.667 68.333 393 205c8 20 12 40.667 12 62h-572c-2.66699 0 -4 1.33301 -4 4c63.333 92 95.666 138 96.999 138h454v2c-26 52.667 -76.333 93.667 -151 123
c-53.333 17.333 -101.333 26 -144 26h-254v5c61.333 91.333 93 137 95 137z" />
    <glyph glyph-name="eacute" unicode="&#xe9;" horiz-adv-x="1260" 
d="M1151 606l-0.000976562 -90h-846c8 -126.667 46.167 -223.167 114.5 -289.5s163.5 -99.5 285.5 -99.5c70.667 0 139.167 8.66699 205.5 26s132.166 43.333 197.499 78v-174c-66 -28 -133.667 -49.333 -203 -64s-139.666 -22 -210.999 -22
c-178.667 0 -320.167 52 -424.5 156s-156.5 244.667 -156.5 422c0 183.333 49.5 328.833 148.5 436.5s232.5 161.5 400.5 161.5c150.667 0 269.834 -48.5 357.501 -145.5s131.5 -228.833 131.5 -395.5zM966.999 660c-1.33301 100.667 -29.499 181 -84.499 241
s-127.833 90 -218.5 90c-102.667 0 -184.834 -29 -246.501 -87s-97.167 -139.667 -106.5 -245zM790 1638h199l-326 -376h-153z" />
    <glyph glyph-name="ecircumflex" unicode="&#xea;" horiz-adv-x="1260" 
d="M1151 606l-0.000976562 -90h-846c8 -126.667 46.167 -223.167 114.5 -289.5s163.5 -99.5 285.5 -99.5c70.667 0 139.167 8.66699 205.5 26s132.166 43.333 197.499 78v-174c-66 -28 -133.667 -49.333 -203 -64s-139.666 -22 -210.999 -22
c-178.667 0 -320.167 52 -424.5 156s-156.5 244.667 -156.5 422c0 183.333 49.5 328.833 148.5 436.5s232.5 161.5 400.5 161.5c150.667 0 269.834 -48.5 357.501 -145.5s131.5 -228.833 131.5 -395.5zM966.999 660c-1.33301 100.667 -29.499 181 -84.499 241
s-127.833 90 -218.5 90c-102.667 0 -184.834 -29 -246.501 -87s-97.167 -139.667 -106.5 -245zM577 1638h148l245 -376h-139l-180 245l-180 -245h-139z" />
    <glyph glyph-name="edieresis" unicode="&#xeb;" horiz-adv-x="1260" 
d="M1151 606l-0.000976562 -90h-846c8 -126.667 46.167 -223.167 114.5 -289.5s163.5 -99.5 285.5 -99.5c70.667 0 139.167 8.66699 205.5 26s132.166 43.333 197.499 78v-174c-66 -28 -133.667 -49.333 -203 -64s-139.666 -22 -210.999 -22
c-178.667 0 -320.167 52 -424.5 156s-156.5 244.667 -156.5 422c0 183.333 49.5 328.833 148.5 436.5s232.5 161.5 400.5 161.5c150.667 0 269.834 -48.5 357.501 -145.5s131.5 -228.833 131.5 -395.5zM966.999 660c-1.33301 100.667 -29.499 181 -84.499 241
s-127.833 90 -218.5 90c-102.667 0 -184.834 -29 -246.501 -87s-97.167 -139.667 -106.5 -245zM745 1552h203v-202h-203v202zM354 1552h203v-202h-203v202z" />
    <glyph glyph-name="igrave" unicode="&#xec;" horiz-adv-x="569" 
d="M383 1120h184v-1120h-184v1120zM40 1493h961.999v-2c-56.667 -87.333 -88.667 -134 -96 -140h-257c35.333 -41.333 59.333 -91.666 72 -150.999h274c3.33301 -0.666992 5 -2 5 -4c-61.333 -92 -92.666 -138 -93.999 -138h-178c-4 -47.333 -26.667 -104.333 -68 -171
c-54.667 -67.333 -107 -111 -157 -131c-93.333 -44.667 -182.666 -67 -267.999 -67v-2c0 -6.66699 21 -34.334 63 -83.001l475 -573v-27c0 -2.66699 -1.66699 -4 -5 -4h-209c-376 438 -564 658 -564 660v133l2 5c33.333 -4.66699 72.333 -7 117 -7
c210.667 0 341.667 68.333 393 205c8 20 12 40.667 12 62h-572c-2.66699 0 -4 1.33301 -4 4c63.333 92 95.666 138 96.999 138h454v2c-26 52.667 -76.333 93.667 -151 123c-53.333 17.333 -101.333 26 -144 26h-254v5c61.333 91.333 93 137 95 137z" />
    <glyph glyph-name="iacute" unicode="&#xed;" horiz-adv-x="569" 
d="M193 1120h184v-1120h-184v1120zM424 1638h199l-326 -376h-153z" />
    <glyph glyph-name="icircumflex" unicode="&#xee;" horiz-adv-x="569" 
d="M193 1120h184v-1120h-184v1120zM211 1638h148l245 -376h-139l-180 245l-180 -245h-139z" />
    <glyph glyph-name="idieresis" unicode="&#xef;" horiz-adv-x="569" 
d="M193 1120h184v-1120h-184v1120zM379 1552h203v-202h-203v202zM-12 1552h203v-202h-203v202z" />
    <glyph glyph-name="eth" unicode="&#xf0;" horiz-adv-x="1253" 
d="M838 915c-33.333 11.333 -64.668 19.667 -94.001 25s-57.666 8 -84.999 8c-111.333 0 -197.833 -36 -259.5 -108s-92.5 -173 -92.5 -303c0 -125.333 29 -225 87 -299s135.667 -111 233 -111c96.667 0 174 37 232 111s87 173.667 87 299c0 81.333 -9 153.333 -27 216
s-45 116.667 -81 162zM900.998 1141c84 -95.333 145 -191.001 183 -287.001s57 -201.667 57 -317c0 -170 -47.333 -306.833 -142 -410.5s-218.667 -155.5 -372 -155.5c-154 0 -278.167 51.833 -372.5 155.5s-141.5 240.5 -141.5 410.5c0 166.667 46 301.834 138 405.501
s211.667 155.5 359 155.5c12 0 26.667 -0.833008 44 -2.5s40 -4.16699 68 -7.5l-159 180l-319 -107l-33 99l281 92l-181 204h228l127 -145l333 111l33 -97l-295 -98z" />
    <glyph glyph-name="ntilde" unicode="&#xf1;" horiz-adv-x="1298" 
d="M1124 676l-0.000976562 -675.999h-184v670c0 106 -20.667 185.333 -62 238s-103.333 79 -186 79c-99.333 0 -177.666 -31.667 -234.999 -95s-86 -149.666 -86 -258.999v-633h-185v1120h185v-174c44 67.333 95.833 117.666 155.5 150.999s128.5 50 206.5 50
c128.667 0 226 -39.833 292 -119.5s99 -196.834 99 -351.501zM659.999 1370l-57 55c-14.667 13.333 -27.5 23.166 -38.5 29.499s-20.833 9.5 -29.5 9.5c-25.333 0 -44 -12.167 -56 -36.5s-18.667 -63.833 -20 -118.5h-125c1.33301 90 19 159.5 53 208.5
s81.333 73.5 142 73.5c25.333 0 48.666 -4.66699 69.999 -14s44.333 -25 69 -47l57 -55c14.667 -13.333 27.5 -23.166 38.5 -29.499s20.833 -9.5 29.5 -9.5c25.333 0 44 12.167 56 36.5s18.667 63.833 20 118.5h125c-1.33301 -90 -19 -159.5 -53 -208.5
s-81.333 -73.5 -142 -73.5c-25.333 0 -48.666 4.66699 -69.999 14s-44.333 25 -69 47z" />
    <glyph glyph-name="ograve" unicode="&#xf2;" horiz-adv-x="1253" 
d="M645 991c-98.667 0 -176.667 -38.5 -234 -115.5s-86 -182.5 -86 -316.5s28.5 -239.5 85.5 -316.5s135.167 -115.5 234.5 -115.5c98 0 175.667 38.667 233 116s86 182.666 86 315.999c0 132.667 -28.667 237.834 -86 315.501s-135 116.5 -233 116.5zM645 1147
c160 0 285.667 -52 377 -156s137 -248 137 -432c0 -183.333 -45.667 -327.166 -137 -431.499s-217 -156.5 -377 -156.5c-160.667 0 -286.5 52.167 -377.5 156.5s-136.5 248.166 -136.5 431.499c0 184 45.5 328 136.5 432s216.833 156 377.5 156zM210 1493h961.999v-2
c-56.667 -87.333 -88.667 -134 -96 -140h-257c35.333 -41.333 59.333 -91.666 72 -150.999h274c3.33301 -0.666992 5 -2 5 -4c-61.333 -92 -92.666 -138 -93.999 -138h-178c-4 -47.333 -26.667 -104.333 -68 -171c-54.667 -67.333 -107 -111 -157 -131
c-93.333 -44.667 -182.666 -67 -267.999 -67v-2c0 -6.66699 21 -34.334 63 -83.001l475 -573v-27c0 -2.66699 -1.66699 -4 -5 -4h-209c-376 438 -564 658 -564 660v133l2 5c33.333 -4.66699 72.333 -7 117 -7c210.667 0 341.667 68.333 393 205c8 20 12 40.667 12 62h-572
c-2.66699 0 -4 1.33301 -4 4c63.333 92 95.666 138 96.999 138h454v2c-26 52.667 -76.333 93.667 -151 123c-53.333 17.333 -101.333 26 -144 26h-254v5c61.333 91.333 93 137 95 137z" />
    <glyph glyph-name="oacute" unicode="&#xf3;" horiz-adv-x="1253" 
d="M627 991c-98.667 0 -176.667 -38.5 -234 -115.5s-86 -182.5 -86 -316.5s28.5 -239.5 85.5 -316.5s135.167 -115.5 234.5 -115.5c98 0 175.667 38.667 233 116s86 182.666 86 315.999c0 132.667 -28.667 237.834 -86 315.501s-135 116.5 -233 116.5zM627 1147
c160 0 285.667 -52 377 -156s137 -248 137 -432c0 -183.333 -45.667 -327.166 -137 -431.499s-217 -156.5 -377 -156.5c-160.667 0 -286.5 52.167 -377.5 156.5s-136.5 248.166 -136.5 431.499c0 184 45.5 328 136.5 432s216.833 156 377.5 156zM766 1638h199l-326 -376
h-153z" />
    <glyph glyph-name="ocircumflex" unicode="&#xf4;" horiz-adv-x="1253" 
d="M627 991c-98.667 0 -176.667 -38.5 -234 -115.5s-86 -182.5 -86 -316.5s28.5 -239.5 85.5 -316.5s135.167 -115.5 234.5 -115.5c98 0 175.667 38.667 233 116s86 182.666 86 315.999c0 132.667 -28.667 237.834 -86 315.501s-135 116.5 -233 116.5zM627 1147
c160 0 285.667 -52 377 -156s137 -248 137 -432c0 -183.333 -45.667 -327.166 -137 -431.499s-217 -156.5 -377 -156.5c-160.667 0 -286.5 52.167 -377.5 156.5s-136.5 248.166 -136.5 431.499c0 184 45.5 328 136.5 432s216.833 156 377.5 156zM553 1638h148l245 -376h-139
l-180 245l-180 -245h-139z" />
    <glyph glyph-name="otilde" unicode="&#xf5;" horiz-adv-x="1253" 
d="M627 991c-98.667 0 -176.667 -38.5 -234 -115.5s-86 -182.5 -86 -316.5s28.5 -239.5 85.5 -316.5s135.167 -115.5 234.5 -115.5c98 0 175.667 38.667 233 116s86 182.666 86 315.999c0 132.667 -28.667 237.834 -86 315.501s-135 116.5 -233 116.5zM627 1147
c160 0 285.667 -52 377 -156s137 -248 137 -432c0 -183.333 -45.667 -327.166 -137 -431.499s-217 -156.5 -377 -156.5c-160.667 0 -286.5 52.167 -377.5 156.5s-136.5 248.166 -136.5 431.499c0 184 45.5 328 136.5 432s216.833 156 377.5 156zM623 1370l-57 55
c-14.667 13.333 -27.5 23.166 -38.5 29.499s-20.833 9.5 -29.5 9.5c-25.333 0 -44 -12.167 -56 -36.5s-18.667 -63.833 -20 -118.5h-125c1.33301 90 19 159.5 53 208.5s81.333 73.5 142 73.5c25.333 0 48.666 -4.66699 69.999 -14s44.333 -25 69 -47l57 -55
c14.667 -13.333 27.5 -23.166 38.5 -29.499s20.833 -9.5 29.5 -9.5c25.333 0 44 12.167 56 36.5s18.667 63.833 20 118.5h125c-1.33301 -90 -19 -159.5 -53 -208.5s-81.333 -73.5 -142 -73.5c-25.333 0 -48.666 4.66699 -69.999 14s-44.333 25 -69 47z" />
    <glyph glyph-name="odieresis" unicode="&#xf6;" horiz-adv-x="1253" 
d="M627 991c-98.667 0 -176.667 -38.5 -234 -115.5s-86 -182.5 -86 -316.5s28.5 -239.5 85.5 -316.5s135.167 -115.5 234.5 -115.5c98 0 175.667 38.667 233 116s86 182.666 86 315.999c0 132.667 -28.667 237.834 -86 315.501s-135 116.5 -233 116.5zM627 1147
c160 0 285.667 -52 377 -156s137 -248 137 -432c0 -183.333 -45.667 -327.166 -137 -431.499s-217 -156.5 -377 -156.5c-160.667 0 -286.5 52.167 -377.5 156.5s-136.5 248.166 -136.5 431.499c0 184 45.5 328 136.5 432s216.833 156 377.5 156zM721 1552h203v-202h-203v202
zM330 1552h203v-202h-203v202z" />
    <glyph glyph-name="divide" unicode="&#xf7;" horiz-adv-x="1716" 
d="M735 1135h246v-246h-246v246zM735 395h246v-245h-246v245zM217 727h1282v-170h-1282v170z" />
    <glyph glyph-name="oslash" unicode="&#xf8;" horiz-adv-x="1253" 
d="M905 801l-486.998 -591.999c27.333 -28 58.166 -48.667 92.499 -62s73.166 -20 116.499 -20c98 0 175.667 38.667 233 116s86 182.666 86 315.999c0 52.667 -3.33301 98.5 -10 137.5s-17 73.833 -31 104.5zM834.002 909.001c-28 27.333 -59.167 47.834 -93.5 61.501
s-72.166 20.5 -113.499 20.5c-100.667 0 -179.167 -39.167 -235.5 -117.5s-84.5 -187.833 -84.5 -328.5c0 -48 3.16699 -90.333 9.5 -127s16.166 -70.334 29.499 -101.001zM221.002 166.002c-36 51.333 -63 109.832 -81 175.499s-27 138.167 -27 217.5
c0 184 45.5 328 136.5 432s216.833 156 377.5 156c62 0 119.5 -8.5 172.5 -25.5s101.833 -42.833 146.5 -77.5l139 168l95 -79l-146 -179c35.333 -51.333 62 -110 80 -176s27 -139 27 -219c0 -183.333 -45.667 -327.166 -137 -431.499s-217 -156.5 -377 -156.5
c-64 0 -122.833 8.66699 -176.5 26s-101.5 43 -143.5 77l-139 -168l-96 78z" />
    <glyph glyph-name="ugrave" unicode="&#xf9;" horiz-adv-x="1298" 
d="M245 442l0.000976562 678.001h184v-671c0 -106 20.667 -185.5 62 -238.5s103.333 -79.5 186 -79.5c99.333 0 177.833 31.667 235.5 95s86.5 149.666 86.5 258.999v635h184v-1120h-184v172c-44.667 -68 -96.5 -118.5 -155.5 -151.5s-127.5 -49.5 -205.5 -49.5
c-128.667 0 -226.334 40 -293.001 120s-100 197 -100 351zM271.001 1493h961.999v-2c-56.667 -87.333 -88.667 -134 -96 -140h-257c35.333 -41.333 59.333 -91.666 72 -150.999h274c3.33301 -0.666992 5 -2 5 -4c-61.333 -92 -92.666 -138 -93.999 -138h-178
c-4 -47.333 -26.667 -104.333 -68 -171c-54.667 -67.333 -107 -111 -157 -131c-93.333 -44.667 -182.666 -67 -267.999 -67v-2c0 -6.66699 21 -34.334 63 -83.001l475 -573v-27c0 -2.66699 -1.66699 -4 -5 -4h-209c-376 438 -564 658 -564 660v133l2 5
c33.333 -4.66699 72.333 -7 117 -7c210.667 0 341.667 68.333 393 205c8 20 12 40.667 12 62h-572c-2.66699 0 -4 1.33301 -4 4c63.333 92 95.666 138 96.999 138h454v2c-26 52.667 -76.333 93.667 -151 123c-53.333 17.333 -101.333 26 -144 26h-254v5
c61.333 91.333 93 137 95 137z" />
    <glyph glyph-name="uacute" unicode="&#xfa;" horiz-adv-x="1298" 
d="M174 442l0.000976562 678.001h184v-671c0 -106 20.667 -185.5 62 -238.5s103.333 -79.5 186 -79.5c99.333 0 177.833 31.667 235.5 95s86.5 149.666 86.5 258.999v635h184v-1120h-184v172c-44.667 -68 -96.5 -118.5 -155.5 -151.5s-127.5 -49.5 -205.5 -49.5
c-128.667 0 -226.334 40 -293.001 120s-100 197 -100 351zM774.001 1638h199l-326 -376h-153z" />
    <glyph glyph-name="ucircumflex" unicode="&#xfb;" horiz-adv-x="1298" 
d="M174 442l0.000976562 678.001h184v-671c0 -106 20.667 -185.5 62 -238.5s103.333 -79.5 186 -79.5c99.333 0 177.833 31.667 235.5 95s86.5 149.666 86.5 258.999v635h184v-1120h-184v172c-44.667 -68 -96.5 -118.5 -155.5 -151.5s-127.5 -49.5 -205.5 -49.5
c-128.667 0 -226.334 40 -293.001 120s-100 197 -100 351zM561.001 1638h148l245 -376h-139l-180 245l-180 -245h-139z" />
    <glyph glyph-name="udieresis" unicode="&#xfc;" horiz-adv-x="1298" 
d="M174 442l0.000976562 678.001h184v-671c0 -106 20.667 -185.5 62 -238.5s103.333 -79.5 186 -79.5c99.333 0 177.833 31.667 235.5 95s86.5 149.666 86.5 258.999v635h184v-1120h-184v172c-44.667 -68 -96.5 -118.5 -155.5 -151.5s-127.5 -49.5 -205.5 -49.5
c-128.667 0 -226.334 40 -293.001 120s-100 197 -100 351zM729.001 1552h203v-202h-203v202zM338.001 1552h203v-202h-203v202z" />
    <glyph glyph-name="yacute" unicode="&#xfd;" horiz-adv-x="1212" 
d="M659 -104c-52 -133.333 -102.667 -220.333 -152 -261s-115.333 -61 -198 -61h-147v154h108c50.667 0 90 12 118 36s59 80.667 93 170l33 84l-453 1102h195l350 -876l350 876h195zM745 1638h199l-326 -376h-153z" />
    <glyph glyph-name="thorn" unicode="&#xfe;" horiz-adv-x="1300" 
d="M371 168v-594h-185v1982h185v-606c38.667 66.667 87.5 116.167 146.5 148.5s129.5 48.5 211.5 48.5c136 0 246.5 -54 331.5 -162s127.5 -250 127.5 -426s-42.5 -318 -127.5 -426s-195.5 -162 -331.5 -162c-82 0 -152.5 16.167 -211.5 48.5s-107.833 81.833 -146.5 148.5z
M997 559c0 135.333 -27.833 241.5 -83.5 318.5s-132.167 115.5 -229.5 115.5s-173.833 -38.5 -229.5 -115.5s-83.5 -183.167 -83.5 -318.5s27.833 -241.5 83.5 -318.5s132.167 -115.5 229.5 -115.5s173.833 38.5 229.5 115.5s83.5 183.167 83.5 318.5z" />
    <glyph glyph-name="ydieresis" unicode="&#xff;" horiz-adv-x="1212" 
d="M659 -104c-52 -133.333 -102.667 -220.333 -152 -261s-115.333 -61 -198 -61h-147v154h108c50.667 0 90 12 118 36s59 80.667 93 170l33 84l-453 1102h195l350 -876l350 876h195zM700 1552h203v-202h-203v202zM309 1552h203v-202h-203v202z" />
    <glyph glyph-name="Cacute" unicode="&#x106;" horiz-adv-x="1430" 
d="M1319 1378v-212.998c-68 63.333 -140.5 110.666 -217.5 141.999s-158.833 47 -245.5 47c-170.667 0 -301.334 -52.167 -392.001 -156.5s-136 -255.166 -136 -452.499c0 -196.667 45.333 -347.167 136 -451.5s221.334 -156.5 392.001 -156.5
c86.667 0 168.5 15.667 245.5 47s149.5 78.666 217.5 141.999v-211c-70.667 -48 -145.5 -84 -224.5 -108s-162.5 -36 -250.5 -36c-226 0 -404 69.167 -534 207.5s-195 327.166 -195 566.499c0 240 65 429.167 195 567.5s308 207.5 534 207.5
c89.333 0 173.5 -11.833 252.5 -35.5s153.167 -59.167 222.5 -106.5zM868 1899h185l-228 -264h-153z" />
    <glyph glyph-name="cacute" unicode="&#x107;" horiz-adv-x="1126" 
d="M999 1077v-171.999c-52 28.667 -104.167 50.167 -156.5 64.5s-105.166 21.5 -158.499 21.5c-119.333 0 -212 -37.833 -278 -113.5s-99 -181.834 -99 -318.501s33 -242.834 99 -318.501s158.667 -113.5 278 -113.5c53.333 0 106.166 7.16699 158.499 21.5
s104.5 35.833 156.5 64.5v-170c-51.333 -24 -104.5 -42 -159.5 -54s-113.5 -18 -175.5 -18c-168.667 0 -302.667 53 -402 159s-149 249 -149 429c0 182.667 50.167 326.334 150.5 431.001s237.833 157 412.5 157c56.667 0 112 -5.83301 166 -17.5s106.333 -29.167 157 -52.5
zM788 1638h199l-326 -376h-153z" />
    <glyph glyph-name="Ccaron" unicode="&#x10c;" horiz-adv-x="1430" 
d="M1319 1378v-212.998c-68 63.333 -140.5 110.666 -217.5 141.999s-158.833 47 -245.5 47c-170.667 0 -301.334 -52.167 -392.001 -156.5s-136 -255.166 -136 -452.499c0 -196.667 45.333 -347.167 136 -451.5s221.334 -156.5 392.001 -156.5
c86.667 0 168.5 15.667 245.5 47s149.5 78.666 217.5 141.999v-211c-70.667 -48 -145.5 -84 -224.5 -108s-162.5 -36 -250.5 -36c-226 0 -404 69.167 -534 207.5s-195 327.166 -195 566.499c0 240 65 429.167 195 567.5s308 207.5 534 207.5
c89.333 0 173.5 -11.833 252.5 -35.5s153.167 -59.167 222.5 -106.5zM719 1635l-211 266h139l166 -178l166 178h139l-211 -266h-188z" />
    <glyph glyph-name="ccaron" unicode="&#x10d;" horiz-adv-x="1126" 
d="M999 1077v-171.999c-52 28.667 -104.167 50.167 -156.5 64.5s-105.166 21.5 -158.499 21.5c-119.333 0 -212 -37.833 -278 -113.5s-99 -181.834 -99 -318.501s33 -242.834 99 -318.501s158.667 -113.5 278 -113.5c53.333 0 106.166 7.16699 158.499 21.5
s104.5 35.833 156.5 64.5v-170c-51.333 -24 -104.5 -42 -159.5 -54s-113.5 -18 -175.5 -18c-168.667 0 -302.667 53 -402 159s-149 249 -149 429c0 182.667 50.167 326.334 150.5 431.001s237.833 157 412.5 157c56.667 0 112 -5.83301 166 -17.5s106.333 -29.167 157 -52.5
zM575 1262l-245 376h139l180 -245l180 245h139l-245 -376h-148z" />
    <glyph glyph-name="dcroat" unicode="&#x111;" horiz-adv-x="1300" 
d="M930 950v334h-326v125h326v147h184v-147h154v-125h-154v-1284h-184v168c-38.667 -66.667 -87.5 -116.167 -146.5 -148.5s-129.833 -48.5 -212.5 -48.5c-135.333 0 -245.5 54 -330.5 162s-127.5 250 -127.5 426s42.5 318 127.5 426s195.167 162 330.5 162
c82.667 0 153.5 -16.167 212.5 -48.5s107.833 -81.833 146.5 -148.5zM303 559c0 -135.333 27.833 -241.5 83.5 -318.5s132.167 -115.5 229.5 -115.5s174 38.5 230 115.5s84 183.167 84 318.5s-28 241.5 -84 318.5s-132.667 115.5 -230 115.5s-173.833 -38.5 -229.5 -115.5
s-83.5 -183.167 -83.5 -318.5z" />
    <glyph glyph-name="Gbreve" unicode="&#x11e;" horiz-adv-x="1587" 
d="M1219 213v401h-330v166h530v-641c-78 -55.333 -164 -97.166 -258 -125.499s-194.333 -42.5 -301 -42.5c-233.333 0 -415.833 68.167 -547.5 204.5s-197.5 326.166 -197.5 569.499c0 244 65.833 434.167 197.5 570.5s314.167 204.5 547.5 204.5
c97.333 0 189.833 -12 277.5 -36s168.5 -59.333 242.5 -106v-215c-74.667 63.333 -154 111 -238 143s-172.333 48 -265 48c-182.667 0 -319.834 -51 -411.501 -153s-137.5 -254 -137.5 -456c0 -201.333 45.833 -353 137.5 -455s228.834 -153 411.501 -153
c71.333 0 135 6.16699 191 18.5s106.333 31.5 151 57.5zM482 1901l117.999 0.000976562c8.66699 -36 29.5 -63.5 62.5 -82.5s77.167 -28.5 132.5 -28.5c54.667 0 98.167 9.16699 130.5 27.5s53.833 46.166 64.5 83.499h118c-6.66699 -79.333 -36.667 -139.5 -90 -180.5
s-127.666 -61.5 -222.999 -61.5c-96 0 -170.5 20.333 -223.5 61s-82.833 101 -89.5 181z" />
    <glyph glyph-name="gbreve" unicode="&#x11f;" horiz-adv-x="1300" 
d="M930 573c0 133.333 -27.5 236.666 -82.5 309.999s-132.167 110 -231.5 110c-98.667 0 -175.5 -36.667 -230.5 -110s-82.5 -176.666 -82.5 -309.999c0 -132.667 27.5 -235.667 82.5 -309s131.833 -110 230.5 -110c99.333 0 176.5 36.667 231.5 110s82.5 176.333 82.5 309z
M1114 139c0 -190.667 -42.333 -332.501 -127 -425.501s-214.334 -139.5 -389.001 -139.5c-64.667 0 -125.667 4.83301 -183 14.5s-113 24.5 -167 44.5v179c54 -29.333 107.333 -51 160 -65s106.334 -21 161.001 -21c120.667 0 211 31.5 271 94.5s90 158.167 90 285.5v91
c-38 -66 -86.667 -115.333 -146 -148s-130.333 -49 -213 -49c-137.333 0 -248 52.333 -332 157s-126 243.334 -126 416.001c0 173.333 42 312.333 126 417s194.667 157 332 157c82.667 0 153.667 -16.333 213 -49s108 -82 146 -148v170h184v-981zM338 1608
l118.005 -0.000976562c7.33301 -50 27.166 -87.5 59.499 -112.5s77.5 -37.5 135.5 -37.5c57.333 0 102 12.333 134 37s52.333 62.334 61 113.001h118c-6.66699 -95.333 -36.334 -167 -89.001 -215s-127.334 -72 -224.001 -72s-171.334 24 -224.001 72
s-82.334 119.667 -89.001 215z" />
    <glyph glyph-name="Idotaccent" unicode="&#x130;" horiz-adv-x="604" 
d="M201 1493h202v-1493h-202v1493zM201 1872h204v-205h-204v205z" />
    <glyph glyph-name="dotlessi" unicode="&#x131;" horiz-adv-x="569" 
d="M193 1120h184v-1120h-184v1120z" />
    <glyph glyph-name="Lslash" unicode="&#x141;" horiz-adv-x="1151" 
d="M211 1493h203v-616l313 219l80 -111l-393 -274v-541h727v-170h-930v571l-148 -106l-77 110l225 158v760z" />
    <glyph glyph-name="lslash" unicode="&#x142;" horiz-adv-x="582" 
d="M199 1556h184v-602l125 90l76 -106l-201 -141v-797h-184v666l-123 -88l-74 106l197 141v731z" />
    <glyph glyph-name="OE" unicode="&#x152;" horiz-adv-x="2191" 
d="M2042 1493v-170h-742v-442h711v-170h-711v-541h760v-170h-1065c-288.667 -0 -507.5 63.333 -656.5 190s-223.5 312.667 -223.5 558c0 243.333 74.5 428.333 223.5 555s367.833 190 656.5 190h1047zM1098 1323h-129c-214 0 -374.333 -47.833 -481 -143.5
s-160 -239.5 -160 -431.5c0 -192.667 53.333 -337.167 160 -433.5s267 -144.5 481 -144.5h129v1153z" />
    <glyph glyph-name="oe" unicode="&#x153;" horiz-adv-x="2095" 
d="M1802 660c-1.33301 101.333 -29.333 181.833 -84 241.5s-127.667 89.5 -219 89.5c-102 0 -183.833 -29 -245.5 -87s-97.167 -139.667 -106.5 -245zM1987 606l0.00195312 -90h-846c8 -126.667 46 -223.167 114 -289.5s163 -99.5 285 -99.5
c70.667 0 139.334 8.66699 206.001 26s132.667 43.333 198 78v-174c-66.667 -28 -134.667 -49.333 -204 -64s-139.333 -22 -210 -22c-106.667 0 -200.334 18.333 -281.001 55s-148 91.334 -202 164.001c-47.333 -73.333 -105.833 -128.166 -175.5 -164.499
s-151.167 -54.5 -244.5 -54.5c-160.667 0 -286.5 52.167 -377.5 156.5s-136.5 248.166 -136.5 431.499c0 184 45.5 328 136.5 432s216.833 156 377.5 156c93.333 0 175.166 -18.5 245.499 -55.5s127.5 -91.5 171.5 -163.5c52 71.333 116.667 125.666 194 162.999
s163.666 56 258.999 56c150.667 0 270 -48.5 358 -145.5s132 -228.833 132 -395.5zM627.002 991c-98.667 0 -176.667 -38.5 -234 -115.5s-86 -182.5 -86 -316.5s28.5 -239.5 85.5 -316.5s135.167 -115.5 234.5 -115.5c98 0 175.667 38.667 233 116s86 182.666 86 315.999
c0 132.667 -28.667 237.834 -86 315.501s-135 116.5 -233 116.5z" />
    <glyph glyph-name="Scedilla" unicode="&#x15e;" horiz-adv-x="1300" 
d="M1096 1444l-0.000976562 -196.997c-76.667 36.667 -149 64 -217 82s-133.667 27 -197 27c-110 0 -194.833 -21.333 -254.5 -64s-89.5 -103.334 -89.5 -182.001c0 -66 19.833 -115.833 59.5 -149.5s114.834 -60.834 225.501 -81.501l122 -25
c150.667 -28.667 261.834 -79.167 333.501 -151.5s107.5 -169.166 107.5 -290.499c0 -144.667 -48.5 -254.334 -145.5 -329.001s-239.167 -112 -426.5 -112c-70.667 0 -145.834 8 -225.501 24s-162.167 39.667 -247.5 71v208c82 -46 162.333 -80.667 241 -104
s156 -35 232 -35c115.333 0 204.333 22.667 267 68s94 110 94 194c0 73.333 -22.5 130.666 -67.5 171.999s-118.833 72.333 -221.5 93l-123 24c-150.667 30 -259.667 77 -327 141s-101 153 -101 267c0 132 46.5 236 139.5 312s221.167 114 384.5 114
c70 0 141.333 -6.33301 214 -19s147 -31.667 223 -57zM734.999 0.00292969c36.667 -41.333 63.999 -79.501 81.999 -114.501s27 -68.5 27 -100.5c0 -59.333 -20 -104.166 -60 -134.499s-99.333 -45.5 -178 -45.5c-30.667 0 -60.5 2 -89.5 6s-57.833 10 -86.5 18v131
c22.667 -11.333 46.334 -19.5 71.001 -24.5s52.667 -7.5 84 -7.5c39.333 0 69 8 89 24s30 39.333 30 70c0 20 -7.16699 44.5 -21.5 73.5s-36.5 63.833 -66.5 104.5h119z" />
    <glyph glyph-name="scedilla" unicode="&#x15f;" horiz-adv-x="1067" 
d="M907 1087l-0.00195312 -174.001c-52 26.667 -106 46.667 -162 60s-114 20 -174 20c-91.333 0 -159.833 -14 -205.5 -42s-68.5 -70 -68.5 -126c0 -42.667 16.333 -76.167 49 -100.5s98.334 -47.5 197.001 -69.5l63 -14c130.667 -28 223.5 -67.5 278.5 -118.5
s82.5 -122.167 82.5 -213.5c0 -104 -41.167 -186.333 -123.5 -247s-195.5 -91 -339.5 -91c-60 0 -122.5 5.83301 -187.5 17.5s-133.5 29.167 -205.5 52.5v190c68 -35.333 135 -61.833 201 -79.5s131.333 -26.5 196 -26.5c86.667 0 153.334 14.833 200.001 44.5
s70 71.5 70 125.5c0 50 -16.833 88.333 -50.5 115s-107.5 52.334 -221.5 77.001l-64 15c-114 24 -196.333 60.833 -247 110.5s-76 117.834 -76 204.501c0 105.333 37.333 186.666 112 243.999s180.667 86 318 86c68 0 132 -5 192 -15s115.333 -25 166 -45z
M618.998 -0.000976562c36.667 -41.333 63.999 -79.501 81.999 -114.501s27 -68.5 27 -100.5c0 -59.333 -20 -104.166 -60 -134.499s-99.333 -45.5 -178 -45.5c-30.667 0 -60.5 2 -89.5 6s-57.833 10 -86.5 18v131c22.667 -11.333 46.334 -19.5 71.001 -24.5
s52.667 -7.5 84 -7.5c39.333 0 69 8 89 24s30 39.333 30 70c0 20 -7.16699 44.5 -21.5 73.5s-36.5 63.833 -66.5 104.5h119z" />
    <glyph glyph-name="Scaron" unicode="&#x160;" horiz-adv-x="1300" 
d="M1096 1444l-0.000976562 -196.997c-76.667 36.667 -149 64 -217 82s-133.667 27 -197 27c-110 0 -194.833 -21.333 -254.5 -64s-89.5 -103.334 -89.5 -182.001c0 -66 19.833 -115.833 59.5 -149.5s114.834 -60.834 225.501 -81.501l122 -25
c150.667 -28.667 261.834 -79.167 333.501 -151.5s107.5 -169.166 107.5 -290.499c0 -144.667 -48.5 -254.334 -145.5 -329.001s-239.167 -112 -426.5 -112c-70.667 0 -145.834 8 -225.501 24s-162.167 39.667 -247.5 71v208c82 -46 162.333 -80.667 241 -104
s156 -35 232 -35c115.333 0 204.333 22.667 267 68s94 110 94 194c0 73.333 -22.5 130.666 -67.5 171.999s-118.833 72.333 -221.5 93l-123 24c-150.667 30 -259.667 77 -327 141s-101 153 -101 267c0 132 46.5 236 139.5 312s221.167 114 384.5 114
c70 0 141.333 -6.33301 214 -19s147 -31.667 223 -57zM556.999 1635l-211 266h139l166 -178l166 178h139l-211 -266h-188z" />
    <glyph glyph-name="scaron" unicode="&#x161;" horiz-adv-x="1067" 
d="M907 1087l-0.00195312 -174.001c-52 26.667 -106 46.667 -162 60s-114 20 -174 20c-91.333 0 -159.833 -14 -205.5 -42s-68.5 -70 -68.5 -126c0 -42.667 16.333 -76.167 49 -100.5s98.334 -47.5 197.001 -69.5l63 -14c130.667 -28 223.5 -67.5 278.5 -118.5
s82.5 -122.167 82.5 -213.5c0 -104 -41.167 -186.333 -123.5 -247s-195.5 -91 -339.5 -91c-60 0 -122.5 5.83301 -187.5 17.5s-133.5 29.167 -205.5 52.5v190c68 -35.333 135 -61.833 201 -79.5s131.333 -26.5 196 -26.5c86.667 0 153.334 14.833 200.001 44.5
s70 71.5 70 125.5c0 50 -16.833 88.333 -50.5 115s-107.5 52.334 -221.5 77.001l-64 15c-114 24 -196.333 60.833 -247 110.5s-76 117.834 -76 204.501c0 105.333 37.333 186.666 112 243.999s180.667 86 318 86c68 0 132 -5 192 -15s115.333 -25 166 -45zM460.998 1262
l-245 376h139l180 -245l180 245h139l-245 -376h-148z" />
    <glyph glyph-name="Ydieresis" unicode="&#x178;" horiz-adv-x="1251" 
d="M-4 1493h217l414 -614l411 614h217l-528 -782v-711h-203v711zM721 1870h203v-203h-203v203zM330 1870h203v-203h-203v203z" />
    <glyph glyph-name="Zcaron" unicode="&#x17d;" horiz-adv-x="1403" 
d="M115 1493h1173v-154l-944 -1169h967v-170h-1219v154l944 1169h-921v170zM608 1635l-211 266h139l166 -178l166 178h139l-211 -266h-188z" />
    <glyph glyph-name="zcaron" unicode="&#x17e;" horiz-adv-x="1075" 
d="M113 1120h874v-168l-692 -805h692v-147h-899v168l692 805h-667v147zM465 1262l-245 376h139l180 -245l180 245h139l-245 -376h-148z" />
    <glyph glyph-name="florin" unicode="&#x192;" horiz-adv-x="1303" 
d="M1282 1520l0.00195312 -164c-25.333 19.333 -51.333 33.666 -78 42.999s-54.667 14 -84 14c-64 0 -115 -20.333 -153 -61s-65.333 -105 -82 -193l-60 -311h287v-143h-317l-127 -635c-38.667 -190 -89.334 -320.167 -152.001 -390.5s-156 -105.5 -280 -105.5
c-38.667 0 -74.667 3.5 -108 10.5s-65.666 17.833 -96.999 32.5v166c34.667 -22 68.167 -38.5 100.5 -49.5s64.166 -16.5 95.499 -16.5c64.667 0 115.167 22.833 151.5 68.5s65.833 123.834 88.5 234.501l137 685h-248v143h279l63 330c24 122 69 215.5 135 280.5
s149.333 97.5 250 97.5c35.333 0 69.666 -3 102.999 -9s65.333 -15 96 -27z" />
    <glyph glyph-name="circumflex" unicode="&#x2c6;" 
d="M438 1638h148l245 -376h-139l-180 245l-180 -245h-139z" />
    <glyph glyph-name="caron" unicode="&#x2c7;" 
d="M438 1262l-245 376h139l180 -245l180 245h139l-245 -376h-148z" />
    <glyph glyph-name="breve" unicode="&#x2d8;" 
d="M199 1608l118.005 -0.000976562c7.33301 -50 27.166 -87.5 59.499 -112.5s77.5 -37.5 135.5 -37.5c57.333 0 102 12.333 134 37s52.333 62.334 61 113.001h118c-6.66699 -95.333 -36.334 -167 -89.001 -215s-127.334 -72 -224.001 -72s-171.334 24 -224.001 72
s-82.334 119.667 -89.001 215z" />
    <glyph glyph-name="dotaccent" unicode="&#x2d9;" 
d="M410 1552h204v-204h-204v204z" />
    <glyph glyph-name="ring" unicode="&#x2da;" 
d="M664 1524c0 42 -14.667 77.667 -44 107s-65.333 44 -108 44c-43.333 0 -79.5 -14.5 -108.5 -43.5s-43.5 -64.833 -43.5 -107.5c0 -43.333 14.5 -79.5 43.5 -108.5s65.167 -43.5 108.5 -43.5c42.667 0 78.667 14.667 108 44s44 65.333 44 108zM786 1524
c0 -76.667 -26.5 -141.667 -79.5 -195s-117.833 -80 -194.5 -80s-141.5 26.667 -194.5 80s-79.5 118.333 -79.5 195s26.5 141.5 79.5 194.5s117.833 79.5 194.5 79.5s141.5 -26.5 194.5 -79.5s79.5 -117.833 79.5 -194.5z" />
    <glyph glyph-name="ogonek" unicode="&#x2db;" 
d="M440 0h118.997c-30 -40.667 -52.167 -75.667 -66.5 -105s-21.5 -54.333 -21.5 -75c0 -30.667 9.16699 -53.667 27.5 -69s45.5 -23 81.5 -23c21.333 0 42.333 2.5 63 7.5s41.334 12.5 62.001 22.5v-133c-25.333 -6.66699 -49.333 -11.667 -72 -15s-44 -5 -64 -5
c-81.333 0 -141.166 14.5 -179.499 43.5s-57.5 74.5 -57.5 136.5c0 32 8.83301 65.5 26.5 100.5s44.834 73.167 81.501 114.5z" />
    <glyph glyph-name="tilde" unicode="&#x2dc;" 
d="M508 1370l-57 55c-14.667 13.333 -27.5 23.166 -38.5 29.499s-20.833 9.5 -29.5 9.5c-25.333 0 -44 -12.167 -56 -36.5s-18.667 -63.833 -20 -118.5h-125c1.33301 90 19 159.5 53 208.5s81.333 73.5 142 73.5c25.333 0 48.666 -4.66699 69.999 -14s44.333 -25 69 -47
l57 -55c14.667 -13.333 27.5 -23.166 38.5 -29.499s20.833 -9.5 29.5 -9.5c25.333 0 44 12.167 56 36.5s18.667 63.833 20 118.5h125c-1.33301 -90 -19 -159.5 -53 -208.5s-81.333 -73.5 -142 -73.5c-25.333 0 -48.666 4.66699 -69.999 14s-44.333 25 -69 47z" />
    <glyph glyph-name="hungarumlaut" unicode="&#x2dd;" 
d="M764 1638h178l-248 -376h-135zM430 1638h170l-223 -376h-137z" />
    <glyph glyph-name="Omega" unicode="&#x3a9;" horiz-adv-x="1565" 
d="M1487 178l-0.00195312 -178h-600v178c118 64.667 210 152.334 276 263.001s99 233.334 99 368.001c0 160 -44 288.333 -132 385s-204 145 -348 145s-260.167 -48.5 -348.5 -145.5s-132.5 -225.167 -132.5 -384.5c0 -134.667 33.167 -257.334 99.5 -368.001
s158.833 -198.334 277.5 -263.001v-178h-600v178h319c-105.333 92.667 -182.166 188.667 -230.499 288s-72.5 210.333 -72.5 333c0 212 63.833 383.667 191.5 515s293.167 197 496.5 197c202 0 367.167 -65.5 495.5 -196.5s192.5 -299.5 192.5 -505.5
c0 -129.333 -23.667 -243.333 -71 -342s-124.666 -195 -231.999 -289h320z" />
    <glyph glyph-name="pi" unicode="&#x3c0;" horiz-adv-x="1206" 
d="M1159 913h-182.002l-105 -487c-10 -49.333 -17.5 -89.333 -22.5 -120s-7.5 -53.334 -7.5 -68.001c0 -38.667 7.83301 -66.167 23.5 -82.5s41.834 -24.5 78.501 -24.5c11.333 0 24.666 0.833008 39.999 2.5s35.333 4.16699 60 7.5l-30 -141
c-20 -5.33301 -39.167 -9.33301 -57.5 -12s-36.166 -4 -53.499 -4c-78.667 0 -138.167 17 -178.5 51s-60.5 84.333 -60.5 151c0 30.667 3.5 70 10.5 118s21.833 125.667 44.5 233l80 376h-326l-194 -913h-181l195 913h-41c-36 0 -64 -10.667 -84 -32s-33 -55 -39 -101h-160
c18.667 110.667 51.834 186.834 99.501 228.501s126.5 62.5 236.5 62.5h889z" />
    <glyph glyph-name="endash" unicode="&#x2013;" 
d="M0 633h1024v-144h-1024v144z" />
    <glyph glyph-name="emdash" unicode="&#x2014;" horiz-adv-x="2048" 
d="M0 633h2048v-144h-2048v144z" />
    <glyph glyph-name="quoteleft" unicode="&#x2018;" horiz-adv-x="651" 
d="M385 1001h-211v173l164 319h129l-82 -319v-173z" />
    <glyph glyph-name="quoteright" unicode="&#x2019;" horiz-adv-x="651" 
d="M260 1493h211v-152l-164 -319h-129l82 319v152z" />
    <glyph glyph-name="quotesinglbase" unicode="&#x201a;" horiz-adv-x="651" 
d="M256 254h211v-172l-164 -320h-129l82 320v172z" />
    <glyph glyph-name="quotedblleft" unicode="&#x201c;" horiz-adv-x="1061" 
d="M385 1001h-211v173l164 319h129l-82 -319v-173zM795 1001h-211v173l164 319h129l-82 -319v-173z" />
    <glyph glyph-name="quotedblright" unicode="&#x201d;" horiz-adv-x="1061" 
d="M256 1493h211v-172l-164 -320h-129l82 320v172zM666 1493h211v-172l-164 -320h-129l82 320v172z" />
    <glyph glyph-name="quotedblbase" unicode="&#x201e;" horiz-adv-x="1061" 
d="M666 254h211v-172l-164 -320h-129l82 320v172zM256 254h211v-172l-164 -320h-129l82 320v172z" />
    <glyph glyph-name="dagger" unicode="&#x2020;" 
d="M424 1493h176v-420h367v-153h-367v-1117h-176v1117h-367v153h367v420z" />
    <glyph glyph-name="daggerdbl" unicode="&#x2021;" 
d="M967 223h-367v-420h-176v420h-367v154h367v543h-367v153h367v420h176v-420h367v-153h-367v-543h367v-154z" />
    <glyph glyph-name="bullet" unicode="&#x2022;" horiz-adv-x="1208" 
d="M307 762c0 82.667 28.8311 152.5 86.498 209.5s128.5 85.5 212.5 85.5c82.667 0 152.5 -28.5 209.5 -85.5s85.5 -126.833 85.5 -209.5c0 -83.333 -28.667 -153.666 -86 -210.999s-127.666 -86 -210.999 -86s-153.666 28.667 -210.999 86s-86 127.666 -86 210.999z" />
    <glyph glyph-name="ellipsis" unicode="&#x2026;" horiz-adv-x="2048" 
d="M918 254h212v-254h-212v254zM1599 254h213v-254h-213v254zM236 254h213v-254h-213v254z" />
    <glyph glyph-name="perthousand" unicode="&#x2030;" horiz-adv-x="2748" 
d="M2292 657c-58 0 -103.667 -24.667 -137 -74s-50 -118 -50 -206c0 -86.667 16.667 -154.834 50 -204.501s79 -74.5 137 -74.5c56.667 0 101.5 24.833 134.5 74.5s49.5 117.834 49.5 204.501c0 87.333 -16.5 155.833 -49.5 205.5s-77.833 74.5 -134.5 74.5zM2292 784
c105.333 0 189 -36.667 251 -110s93 -172.333 93 -297s-31.167 -223.5 -93.5 -296.5s-145.833 -109.5 -250.5 -109.5c-106.667 0 -191 36.5 -253 109.5s-93 171.833 -93 296.5c0 125.333 31.167 224.5 93.5 297.5s146.5 109.5 252.5 109.5zM457 1520
c105.333 0 189.333 -36.5 252 -109.5s94 -171.833 94 -296.5c0 -126 -31.167 -225.333 -93.5 -298s-146.5 -109 -252.5 -109s-189.833 36.5 -251.5 109.5s-92.5 172.167 -92.5 297.5c0 124 31 222.667 93 296s145.667 110 251 110zM1360 1520h160l-934 -1549h-160zM457 1393
c-57.333 0 -102.501 -24.832 -135.501 -74.499s-49.5 -117.834 -49.5 -204.501c0 -88 16.333 -156.667 49 -206s78 -74 136 -74s103.5 24.667 136.5 74s49.5 118 49.5 206c0 86 -16.667 154 -50 204s-78.666 75 -135.999 75zM1489 784.001c105.333 0 189 -36.667 251 -110
s93 -172.333 93 -297s-31.167 -223.5 -93.5 -296.5s-145.833 -109.5 -250.5 -109.5c-106.667 0 -191 36.5 -253 109.5s-93 171.833 -93 296.5c0 125.333 31.167 224.5 93.5 297.5s146.5 109.5 252.5 109.5zM1489 657.001c-58 0 -103.5 -24.667 -136.5 -74
s-49.5 -118 -49.5 -206c0 -86.667 16.5 -154.834 49.5 -204.501s78.5 -74.5 136.5 -74.5c56.667 0 101.5 24.833 134.5 74.5s49.5 117.834 49.5 204.501c0 87.333 -16.5 155.833 -49.5 205.5s-77.833 74.5 -134.5 74.5z" />
    <glyph glyph-name="guilsinglleft" unicode="&#x2039;" horiz-adv-x="819" 
d="M627 1059v-191l-301 -268l301 -268v-191l-469 418v82z" />
    <glyph glyph-name="guilsinglright" unicode="&#x203a;" horiz-adv-x="819" 
d="M193 1059l469 -418v-82l-469 -418v191l301 268l-301 268v191z" />
    <glyph glyph-name="Euro" unicode="&#x20ac;" horiz-adv-x="1303" 
d="M1167 1378l0.000976562 -213.002c-60.667 70 -119.167 120 -175.5 150s-118.5 45 -186.5 45c-104.667 0 -190.667 -33.333 -258 -100s-111.666 -162.334 -132.999 -287.001h577l-55 -123h-538c-1.33301 -16 -2.16602 -31.667 -2.49902 -47s-0.5 -34.666 -0.5 -57.999
c0 -21.333 0.166992 -39.666 0.5 -54.999s1.16602 -31 2.49902 -47h446l-56 -123h-374c21.333 -124.667 65.666 -220.667 132.999 -288s153.333 -101 258 -101c68 0 130.167 15 186.5 45s114.833 80 175.5 150v-211c-59.333 -48 -119.833 -84 -181.5 -108
s-124.5 -36 -188.5 -36c-158 0 -288.5 48.333 -391.5 145s-167.833 231.334 -194.5 404.001h-211l55 123h139c0 15.333 -0.166992 30.833 -0.5 46.5s-0.5 34.167 -0.5 55.5c0 23.333 0.166992 42.833 0.5 58.5s0.5 31.167 0.5 46.5h-194l55 123h156
c26.667 171.333 91.667 305.333 195 402s233.666 145 390.999 145c65.333 0 128.833 -11.833 190.5 -35.5s121.5 -59.167 179.5 -106.5z" />
    <glyph glyph-name="trademark" unicode="&#x2122;" horiz-adv-x="2048" 
d="M1098 1493l174 -256l164 256h170v-578h-113v484l-195 -303h-55l-203 303v-484h-114v578h172zM813 1493v-94h-203v-484h-114v484h-201v94h518z" />
    <glyph glyph-name="partialdiff" unicode="&#x2202;" horiz-adv-x="1059" 
d="M756 621c10 58 17.502 114.164 22.502 168.497s7.5 106.5 7.5 156.5c0 86 -12.167 150.833 -36.5 194.5s-60.5 65.5 -108.5 65.5c-36.667 0 -79 -19.333 -127 -58s-84 -58 -108 -58s-44 7.33301 -60 22s-24 32.334 -24 53.001c0 41.333 24 78.333 72 111
s105.667 49 173 49c120 0 215.667 -51.667 287 -155s107 -242.666 107 -417.999c0 -223.333 -48.167 -408.666 -144.5 -555.999s-215.5 -221 -357.5 -221c-101.333 0 -185.833 36 -253.5 108s-101.5 162.333 -101.5 271c0 132 36.833 240.833 110.5 326.5
s164.5 128.5 272.5 128.5c67.333 0 122.666 -15.167 165.999 -45.5s77.666 -77.833 102.999 -142.5zM707.002 493.997c0 77.333 -14.5 136.833 -43.5 178.5s-69.833 62.5 -122.5 62.5c-72.667 0 -132.5 -43 -179.5 -129s-70.5 -198 -70.5 -336
c0 -77.333 14.333 -136.5 43 -177.5s69.667 -61.5 123 -61.5c72.667 0 132.5 43.333 179.5 130s70.5 197.667 70.5 333z" />
    <glyph glyph-name="Delta" unicode="&#x2206;" horiz-adv-x="1370" 
d="M684 1262l-418 -1084h836zM573 1473h224l579 -1473h-1382z" />
    <glyph glyph-name="product" unicode="&#x220f;" horiz-adv-x="1550" 
d="M156 1473h1237v-1866h-240v1661h-758v-1661h-239v1866z" />
    <glyph glyph-name="summation" unicode="&#x2211;" horiz-adv-x="1380" 
d="M55 1473h1258v-193h-959l672 -717l-694 -764h1007v-192h-1314v149l725 801l-695 739v177z" />
    <glyph glyph-name="minus" unicode="&#x2212;" horiz-adv-x="1716" 
d="M217 727h1282v-170h-1282v170z" />
    <glyph glyph-name="fraction" unicode="&#x2215;" horiz-adv-x="342" 
d="M557 1520h160l-932 -1549h-160z" />
    <glyph glyph-name="periodcentered" unicode="&#x2219;" horiz-adv-x="651" 
d="M219 838h211v-254h-211v254z" />
    <glyph glyph-name="radical" unicode="&#x221a;" horiz-adv-x="1305" 
d="M1116 1661h189v-96h-115l-594 -1606h-66l-319 883l-125 -45l-25 80l283 98l256 -709z" />
    <glyph glyph-name="infinity" unicode="&#x221e;" horiz-adv-x="1706" 
d="M915 559c32.667 -58.667 71.3311 -103 115.998 -133s95 -45 151 -45c67.333 0 122.333 22.5 165 67.5s64 102.5 64 172.5c0 67.333 -19.667 123.333 -59 168s-88.666 67 -147.999 67c-54.667 0 -104.167 -22.5 -148.5 -67.5s-91.166 -121.5 -140.499 -229.5zM792.997 666
c-32.667 58.667 -71.168 102.668 -115.501 132.001s-94.833 44 -151.5 44c-68 0 -123.167 -22 -165.5 -66s-63.5 -101.333 -63.5 -172c0 -67.333 19.667 -123.333 59 -168s88.666 -67 147.999 -67c54.667 0 104.334 22.667 149.001 68s91.334 121.666 140.001 228.999z
M863.996 483.001c-46.667 -90 -96.166 -156.168 -148.499 -198.501s-109.833 -63.5 -172.5 -63.5c-90.667 0 -167 37.167 -229 111.5s-93 166.833 -93 277.5c0 116.667 27.833 211 83.5 283s128.167 108 217.5 108c63.333 0 120.5 -21 171.5 -63s100.5 -109 148.5 -201
c45.333 92 94.333 159.833 147 203.5s111.334 65.5 176.001 65.5c89.333 0 165.333 -37.5 228 -112.5s94 -168.167 94 -279.5c0 -116.667 -27.833 -210.667 -83.5 -282s-128.167 -107 -217.5 -107c-62.667 0 -118.834 19.833 -168.501 59.5
s-100.834 105.834 -153.501 198.501z" />
    <glyph glyph-name="integral" unicode="&#x222b;" horiz-adv-x="1067" 
d="M311 -262c70.667 0 110.668 229.334 120.001 688.001l3 165c8 343.333 43.667 589 107 737s162.333 222 297 222c53.333 0 96.666 -14 129.999 -42s50 -63.667 50 -107c0 -36 -10.667 -64.5 -32 -85.5s-50.333 -31.5 -87 -31.5c-28 0 -51.333 6.33301 -70 19
s-32 30.667 -40 54c-4 10 -7.5 27 -10.5 51s-9.83301 36 -20.5 36c-71.333 0 -111.666 -206.333 -120.999 -619c-2.66699 -128.667 -5.33398 -229.667 -8.00098 -303c-11.333 -319.333 -48.5 -548 -111.5 -686s-159.833 -207 -290.5 -207
c-52.667 0 -95.834 13.833 -129.501 41.5s-50.5 63.167 -50.5 106.5c0 37.333 11.333 66.5 34 87.5s54.334 31.5 95.001 31.5c22 0 41 -4.83301 57 -14.5s29 -23.834 39 -42.501c6.66699 -12 11.667 -31.833 15 -59.5s11.333 -41.5 24 -41.5z" />
    <glyph glyph-name="approxequal" unicode="&#x2248;" horiz-adv-x="1716" 
d="M1499 623v-179.001c-70 -52 -134.833 -89.5 -194.5 -112.5s-121.834 -34.5 -186.501 -34.5c-73.333 0 -158.666 19.667 -255.999 59l-17 7c-4 1.33301 -11 4 -21 8c-103.333 40.667 -186.333 61 -249 61c-58.667 0 -116.667 -12.667 -174 -38s-118.666 -66 -183.999 -122
v179c70 52 134.833 89.5 194.5 112.5s121.834 34.5 186.501 34.5c73.333 0 159 -19.667 257 -59c7.33301 -3.33301 12.666 -5.66602 15.999 -6.99902c4 -1.33301 11 -4 21 -8c103.333 -40.667 186.333 -61 249 -61c57.333 0 114.166 12.5 170.499 37.5
s118.833 65.833 187.5 122.5zM1499 1012l-0.000976562 -178.001c-70 -52.667 -134.833 -90.5 -194.5 -113.5s-121.834 -34.5 -186.501 -34.5c-73.333 0 -158.666 19.667 -255.999 59l-17 7c-4 1.33301 -11 4 -21 8c-103.333 40.667 -186.333 61 -249 61
c-58.667 0 -116.667 -12.667 -174 -38s-118.666 -65.666 -183.999 -120.999v178c70 52 134.833 89.5 194.5 112.5s121.834 34.5 186.501 34.5c73.333 0 159 -19.667 257 -59l15 -6l22 -9c103.333 -40.667 186.333 -61 249 -61c57.333 0 114.166 12.5 170.499 37.5
s118.833 65.833 187.5 122.5z" />
    <glyph glyph-name="notequal" unicode="&#x2260;" horiz-adv-x="1716" 
d="M217 930h772l256 315l125 -102l-174 -213h303v-168h-440l-195 -240h635v-170h-774l-258 -313l-125 102l174 211h-299v170h438l195 240h-633v168z" />
    <glyph glyph-name="lessequal" unicode="&#x2264;" horiz-adv-x="1716" 
d="M1499 1016l-960 -277l960 -274v-178l-1282 368v170l1282 367v-176zM217 170h1282v-170h-1282v170z" />
    <glyph glyph-name="greaterequal" unicode="&#x2265;" horiz-adv-x="1716" 
d="M217 1016v176l1282 -367v-170l-1282 -368v178l961 274zM1499 170v-170h-1282v170h1282z" />
    <glyph glyph-name="lozenge" unicode="&#x25ca;" horiz-adv-x="1012" 
d="M506 1409l-385 -817l385 -825l385 825zM506 1653l500 -1061l-500 -1069l-500 1069z" />
    <glyph glyph-name="fi" unicode="&#xfb01;" horiz-adv-x="1290" 
d="M1098 1120v-1120h-185v977h-505v-977h-185v977h-176v143h176v78c0 122 28.833 212.167 86.5 270.5s146.167 87.5 265.5 87.5h185v-153h-176c-66 0 -111.833 -13.333 -137.5 -40s-38.5 -74.667 -38.5 -144v-99h690zM913 1554h185v-233h-185v233z" />
    <glyph glyph-name="fl" unicode="&#xfb02;" horiz-adv-x="1290" 
d="M586 1556h512v-1556h-185v1403h-329c-66 0 -111.833 -13.333 -137.5 -40s-38.5 -74.667 -38.5 -144v-99h303v-143h-303v-977h-185v977h-176v143h176v78c0 124.667 29 215.5 87 272.5s150 85.5 276 85.5z" />
    <glyph glyph-name=".null" horiz-adv-x="0" 
 />
    <glyph glyph-name="nonmarkingreturn" horiz-adv-x="651" 
 />
    <glyph glyph-name="c6459" 
d="M606 1497h203v-203h-203v203zM215 1497h203v-203h-203v203z" />
    <glyph glyph-name="c6460" 
d="M567 1526h185l-228 -264h-153z" />
    <glyph glyph-name="c6461" 
d="M508 1337l-56.9961 33.002c-16.667 9.33301 -30.167 15.833 -40.5 19.5s-19.5 5.5 -27.5 5.5c-24 0 -42.667 -8.33301 -56 -25s-20 -40 -20 -70v-6h-125c0 67.333 17.167 120.666 51.5 159.999s80.166 59 137.499 59c24 0 46.167 -2.66699 66.5 -8s46.5 -17 78.5 -35
l57 -30c15.333 -8.66699 28.666 -15 39.999 -19s22 -6 32 -6c21.333 0 38.666 8.5 51.999 25.5s20 39.167 20 66.5v6h125c-1.33301 -66.667 -19.166 -119.834 -53.499 -159.501s-79.5 -59.5 -135.5 -59.5c-22.667 0 -43.834 2.66699 -63.501 8s-46.834 17 -81.501 35z" />
    <glyph glyph-name="c6462" 
d="M455 1526l196 -264h-153l-230 264h187z" />
    <glyph glyph-name="c6463" 
d="M418 1528h188l211 -266h-139l-166 178l-166 -178h-139z" />
    <glyph glyph-name="c6466" 
d="M418 1262l-211 266h139l166 -178l166 178h139l-211 -266h-188z" />
    <glyph glyph-name="c6467" horiz-adv-x="821" 
d="M477 1382l-309 -419h309v419zM455 1503h166v-540h135v-109h-135v-186h-144v186h-414v121z" />
    <glyph glyph-name="c6468" 
d="M199 1528l117.999 0.000976562c8.66699 -36 29.5 -63.5 62.5 -82.5s77.167 -28.5 132.5 -28.5c54.667 0 98.167 9.16699 130.5 27.5s53.833 46.166 64.5 83.499h118c-6.66699 -79.333 -36.667 -139.5 -90 -180.5s-127.666 -61.5 -222.999 -61.5
c-96 0 -170.5 20.333 -223.5 61s-82.833 101 -89.5 181z" />
    <glyph glyph-name="c6469" 
d="M410 1499h204v-205h-204v205z" />
    </font>
</defs>
</svg>
